<svg xmlns="http://www.w3.org/2000/svg" xmlns:xlink="http://www.w3.org/1999/xlink" width="172" zoomAndPan="magnify" viewBox="0 0 129 30.000001" height="40" preserveAspectRatio="xMidYMid meet" version="1.0"><defs><g/><clipPath id="9e0f143736"><path d="M 12.8125 1.453125 L 19.9375 1.453125 L 19.9375 6.253906 L 12.8125 6.253906 Z M 12.8125 1.453125 " clip-rule="nonzero"/></clipPath></defs><g fill="#211c1d" fill-opacity="0.149"><g transform="translate(30.207567, 21.705914)"><g><path d="M 10.878906 0 L 11.976562 0 L 9.53125 -11.234375 L 6.074219 -2.214844 L 2.617188 -11.234375 L 0.15625 0 L 1.269531 0 L 2.898438 -7.5 L 6.074219 0.621094 L 9.234375 -7.5 Z M 10.878906 0 "/></g></g></g><g fill="#211c1d" fill-opacity="0.149"><g transform="translate(42.957258, 21.705914)"><g><path d="M 4.664062 -5.40625 L 4.664062 -6.816406 C 4.449219 -6.910156 4.214844 -6.957031 3.984375 -6.957031 C 3.207031 -6.957031 2.648438 -6.523438 2.292969 -5.6875 L 2.246094 -5.40625 L 2.246094 -6.816406 L 1.164062 -6.816406 L 1.164062 0 L 2.246094 0 L 2.246094 -3.410156 C 2.246094 -3.96875 2.371094 -4.460938 2.632812 -4.914062 C 2.757812 -5.144531 2.929688 -5.347656 3.128906 -5.5 C 3.332031 -5.65625 3.578125 -5.75 3.859375 -5.75 C 4.136719 -5.75 4.402344 -5.625 4.664062 -5.40625 Z M 4.664062 -5.40625 "/></g></g></g><g fill="#211c1d" fill-opacity="0.149"><g transform="translate(48.395004, 21.705914)"><g><path d="M 2.136719 -0.960938 C 1.875 -1.148438 1.671875 -1.457031 1.566406 -1.90625 L 0.417969 -1.90625 C 0.652344 -0.496094 1.550781 0.203125 3.128906 0.203125 C 3.503906 0.203125 3.84375 0.171875 4.167969 0.078125 C 4.492188 -0.015625 4.773438 -0.140625 5.035156 -0.308594 C 5.5625 -0.667969 5.828125 -1.207031 5.828125 -1.9375 C 5.828125 -2.679688 5.484375 -3.207031 4.773438 -3.546875 C 4.476562 -3.6875 4.152344 -3.796875 3.796875 -3.875 C 3.457031 -3.953125 3.128906 -4.042969 2.835938 -4.136719 C 2.527344 -4.230469 2.277344 -4.355469 2.078125 -4.492188 C 1.875 -4.632812 1.765625 -4.851562 1.765625 -5.160156 C 1.765625 -5.46875 1.890625 -5.703125 2.136719 -5.84375 C 2.386719 -5.996094 2.679688 -6.074219 3.007812 -6.074219 C 3.347656 -6.074219 3.640625 -5.996094 3.875 -5.871094 C 4.105469 -5.75 4.292969 -5.5 4.402344 -5.128906 L 5.5625 -5.128906 C 5.421875 -5.8125 5.128906 -6.292969 4.695312 -6.554688 C 4.246094 -6.832031 3.703125 -6.972656 3.039062 -6.972656 C 2.386719 -6.972656 1.8125 -6.789062 1.332031 -6.445312 C 0.867188 -6.089844 0.621094 -5.578125 0.621094 -4.898438 C 0.621094 -4.570312 0.710938 -4.277344 0.882812 -4.027344 C 1.070312 -3.765625 1.332031 -3.5625 1.671875 -3.410156 C 1.984375 -3.269531 2.308594 -3.160156 2.648438 -3.066406 C 2.992188 -2.992188 3.316406 -2.898438 3.625 -2.804688 C 4.324219 -2.574219 4.679688 -2.230469 4.679688 -1.796875 C 4.679688 -1.054688 4.183594 -0.699219 3.191406 -0.699219 C 2.773438 -0.699219 2.417969 -0.773438 2.136719 -0.960938 Z M 2.136719 -0.960938 "/></g></g></g><g fill="#ffffff" fill-opacity="1"><g transform="translate(29.550043, 21.048389)"><g><path d="M 10.878906 0 L 11.976562 0 L 9.53125 -11.234375 L 6.074219 -2.214844 L 2.617188 -11.234375 L 0.15625 0 L 1.269531 0 L 2.898438 -7.5 L 6.074219 0.621094 L 9.234375 -7.5 Z M 10.878906 0 "/></g></g></g><g fill="#ffffff" fill-opacity="1"><g transform="translate(42.299733, 21.048389)"><g><path d="M 4.664062 -5.40625 L 4.664062 -6.816406 C 4.449219 -6.910156 4.214844 -6.957031 3.984375 -6.957031 C 3.207031 -6.957031 2.648438 -6.523438 2.292969 -5.6875 L 2.246094 -5.40625 L 2.246094 -6.816406 L 1.164062 -6.816406 L 1.164062 0 L 2.246094 0 L 2.246094 -3.410156 C 2.246094 -3.96875 2.371094 -4.460938 2.632812 -4.914062 C 2.757812 -5.144531 2.929688 -5.347656 3.128906 -5.5 C 3.332031 -5.65625 3.578125 -5.75 3.859375 -5.75 C 4.136719 -5.75 4.402344 -5.625 4.664062 -5.40625 Z M 4.664062 -5.40625 "/></g></g></g><g fill="#ffffff" fill-opacity="1"><g transform="translate(47.737479, 21.048389)"><g><path d="M 2.136719 -0.960938 C 1.875 -1.148438 1.671875 -1.457031 1.566406 -1.90625 L 0.417969 -1.90625 C 0.652344 -0.496094 1.550781 0.203125 3.128906 0.203125 C 3.503906 0.203125 3.84375 0.171875 4.167969 0.078125 C 4.492188 -0.015625 4.773438 -0.140625 5.035156 -0.308594 C 5.5625 -0.667969 5.828125 -1.207031 5.828125 -1.9375 C 5.828125 -2.679688 5.484375 -3.207031 4.773438 -3.546875 C 4.476562 -3.6875 4.152344 -3.796875 3.796875 -3.875 C 3.457031 -3.953125 3.128906 -4.042969 2.835938 -4.136719 C 2.527344 -4.230469 2.277344 -4.355469 2.078125 -4.492188 C 1.875 -4.632812 1.765625 -4.851562 1.765625 -5.160156 C 1.765625 -5.46875 1.890625 -5.703125 2.136719 -5.84375 C 2.386719 -5.996094 2.679688 -6.074219 3.007812 -6.074219 C 3.347656 -6.074219 3.640625 -5.996094 3.875 -5.871094 C 4.105469 -5.75 4.292969 -5.5 4.402344 -5.128906 L 5.5625 -5.128906 C 5.421875 -5.8125 5.128906 -6.292969 4.695312 -6.554688 C 4.246094 -6.832031 3.703125 -6.972656 3.039062 -6.972656 C 2.386719 -6.972656 1.8125 -6.789062 1.332031 -6.445312 C 0.867188 -6.089844 0.621094 -5.578125 0.621094 -4.898438 C 0.621094 -4.570312 0.710938 -4.277344 0.882812 -4.027344 C 1.070312 -3.765625 1.332031 -3.5625 1.671875 -3.410156 C 1.984375 -3.269531 2.308594 -3.160156 2.648438 -3.066406 C 2.992188 -2.992188 3.316406 -2.898438 3.625 -2.804688 C 4.324219 -2.574219 4.679688 -2.230469 4.679688 -1.796875 C 4.679688 -1.054688 4.183594 -0.699219 3.191406 -0.699219 C 2.773438 -0.699219 2.417969 -0.773438 2.136719 -0.960938 Z M 2.136719 -0.960938 "/></g></g></g><g fill="#211c1d" fill-opacity="0.149"><g transform="translate(55.236549, 21.705914)"><g><path d="M 8.042969 -2.929688 C 8.042969 -3.671875 7.855469 -4.308594 7.5 -4.804688 C 7.128906 -5.300781 6.632812 -5.640625 6.027344 -5.8125 C 6.382812 -5.964844 6.695312 -6.246094 6.925781 -6.664062 C 7.035156 -6.847656 7.113281 -7.035156 7.175781 -7.238281 C 7.238281 -7.4375 7.269531 -7.71875 7.269531 -8.074219 C 7.269531 -8.414062 7.175781 -8.769531 7.019531 -9.113281 C 6.554688 -10.058594 5.546875 -10.539062 4.011719 -10.539062 L 1.164062 -10.539062 L 1.164062 0 L 4.386719 0 C 5.453125 0 6.308594 -0.234375 6.957031 -0.726562 C 7.28125 -0.976562 7.546875 -1.300781 7.746094 -1.703125 C 7.933594 -2.09375 8.042969 -2.496094 8.042969 -2.929688 Z M 6.183594 -7.902344 C 6.183594 -7.328125 6.011719 -6.910156 5.671875 -6.632812 C 5.332031 -6.351562 4.882812 -6.214844 4.324219 -6.214844 L 2.246094 -6.214844 L 2.246094 -9.5 L 4.011719 -9.5 C 5.453125 -9.5 6.183594 -8.957031 6.183594 -7.902344 Z M 6.957031 -3.144531 C 6.957031 -2.511719 6.742188 -2 6.308594 -1.613281 C 5.886719 -1.222656 5.347656 -1.039062 4.695312 -1.039062 L 2.246094 -1.039062 L 2.246094 -5.128906 L 4.867188 -5.128906 C 5.40625 -5.128906 5.886719 -4.941406 6.308594 -4.570312 C 6.492188 -4.402344 6.648438 -4.199219 6.773438 -3.96875 C 6.894531 -3.71875 6.957031 -3.457031 6.957031 -3.144531 Z M 6.957031 -3.144531 "/></g></g></g><g fill="#211c1d" fill-opacity="0.149"><g transform="translate(64.206333, 21.705914)"><g><path d="M 7.824219 -3.5625 C 7.824219 -4.492188 7.453125 -5.300781 6.742188 -5.996094 C 6.042969 -6.664062 5.207031 -7.003906 4.261719 -7.003906 C 3.269531 -7.003906 2.433594 -6.648438 1.734375 -5.949219 C 1.039062 -5.253906 0.699219 -4.417969 0.699219 -3.441406 C 0.699219 -2.449219 1.039062 -1.613281 1.734375 -0.929688 C 2.0625 -0.605469 2.433594 -0.355469 2.867188 -0.171875 C 3.300781 0.015625 3.8125 0.109375 4.417969 0.109375 C 5.019531 0.109375 5.609375 -0.078125 6.199219 -0.449219 C 6.789062 -0.820312 7.222656 -1.347656 7.515625 -2 L 6.277344 -2 C 6.027344 -1.671875 5.734375 -1.425781 5.378906 -1.238281 C 5.019531 -1.054688 4.648438 -0.976562 4.261719 -0.976562 C 3.671875 -0.976562 3.144531 -1.164062 2.679688 -1.550781 C 2.214844 -1.921875 1.921875 -2.402344 1.828125 -2.992188 L 7.824219 -2.992188 Z M 6.679688 -3.921875 L 1.84375 -3.921875 C 1.90625 -4.199219 2.015625 -4.460938 2.167969 -4.710938 C 2.664062 -5.515625 3.363281 -5.917969 4.261719 -5.917969 C 4.835938 -5.917969 5.347656 -5.734375 5.796875 -5.363281 C 6.261719 -4.972656 6.539062 -4.492188 6.679688 -3.921875 Z M 6.679688 -3.921875 "/></g></g></g><g fill="#211c1d" fill-opacity="0.149"><g transform="translate(73.269068, 21.705914)"><g><path d="M 6.585938 -3.410156 C 6.585938 -2.742188 6.351562 -2.152344 5.886719 -1.671875 C 5.421875 -1.175781 4.851562 -0.929688 4.183594 -0.929688 C 3.503906 -0.929688 2.929688 -1.175781 2.464844 -1.671875 C 2 -2.152344 1.78125 -2.742188 1.78125 -3.410156 C 1.78125 -4.058594 2 -4.648438 2.464844 -5.144531 C 2.929688 -5.640625 3.503906 -5.886719 4.183594 -5.886719 C 4.851562 -5.886719 5.421875 -5.640625 5.886719 -5.144531 C 6.351562 -4.648438 6.585938 -4.058594 6.585938 -3.410156 Z M 7.671875 0 L 7.671875 -6.816406 L 6.585938 -6.816406 L 6.585938 -5.640625 C 6.523438 -5.734375 6.445312 -5.8125 6.382812 -5.886719 C 5.734375 -6.601562 4.941406 -6.972656 4.011719 -6.972656 C 3.066406 -6.972656 2.277344 -6.601562 1.628906 -5.886719 C 1.007812 -5.175781 0.699219 -4.355469 0.699219 -3.410156 C 0.699219 -2.449219 1.007812 -1.628906 1.628906 -0.929688 C 2.277344 -0.203125 3.066406 0.15625 4.011719 0.15625 C 4.941406 0.15625 5.734375 -0.203125 6.382812 -0.929688 C 6.445312 -0.992188 6.523438 -1.070312 6.585938 -1.164062 L 6.585938 0 Z M 7.671875 0 "/></g></g></g><g fill="#211c1d" fill-opacity="0.149"><g transform="translate(82.719084, 21.705914)"><g><path d="M 5.871094 -1.164062 L 5.871094 0 L 6.957031 0 L 6.957031 -6.816406 L 5.871094 -6.816406 L 5.871094 -3.96875 C 5.871094 -3.007812 5.6875 -2.277344 5.332031 -1.734375 C 4.988281 -1.207031 4.386719 -0.945312 3.546875 -0.945312 C 3.082031 -0.945312 2.742188 -1.101562 2.542969 -1.410156 C 2.339844 -1.71875 2.246094 -2.109375 2.246094 -2.558594 L 2.246094 -6.816406 L 1.164062 -6.816406 L 1.164062 -2.558594 C 1.164062 -1.765625 1.363281 -1.117188 1.796875 -0.605469 C 2.230469 -0.109375 2.820312 0.140625 3.59375 0.140625 C 4.601562 0.140625 5.363281 -0.292969 5.871094 -1.164062 Z M 5.871094 -1.164062 "/></g></g></g><g fill="#211c1d" fill-opacity="0.149"><g transform="translate(91.22413, 21.705914)"><g><path d="M 0.308594 -5.8125 L 2.015625 -5.8125 L 2.015625 0 L 3.097656 0 L 3.097656 -5.8125 L 4.789062 -5.8125 L 4.789062 -6.816406 L 3.097656 -6.816406 L 3.097656 -9.46875 L 2.015625 -9.46875 L 2.015625 -6.816406 L 0.308594 -6.816406 Z M 0.308594 -5.8125 "/></g></g></g><g fill="#211c1d" fill-opacity="0.149"><g transform="translate(96.940719, 21.705914)"><g><path d="M 2.03125 3.875 L 6.742188 -6.816406 L 5.53125 -6.816406 L 3.578125 -2.246094 L 1.394531 -6.816406 L 0.15625 -6.816406 L 3.007812 -1.117188 L 0.710938 3.875 Z M 2.03125 3.875 "/></g></g></g><g fill="#ffffff" fill-opacity="1"><g transform="translate(54.579024, 21.048389)"><g><path d="M 8.042969 -2.929688 C 8.042969 -3.671875 7.855469 -4.308594 7.5 -4.804688 C 7.128906 -5.300781 6.632812 -5.640625 6.027344 -5.8125 C 6.382812 -5.964844 6.695312 -6.246094 6.925781 -6.664062 C 7.035156 -6.847656 7.113281 -7.035156 7.175781 -7.238281 C 7.238281 -7.4375 7.269531 -7.71875 7.269531 -8.074219 C 7.269531 -8.414062 7.175781 -8.769531 7.019531 -9.113281 C 6.554688 -10.058594 5.546875 -10.539062 4.011719 -10.539062 L 1.164062 -10.539062 L 1.164062 0 L 4.386719 0 C 5.453125 0 6.308594 -0.234375 6.957031 -0.726562 C 7.28125 -0.976562 7.546875 -1.300781 7.746094 -1.703125 C 7.933594 -2.09375 8.042969 -2.496094 8.042969 -2.929688 Z M 6.183594 -7.902344 C 6.183594 -7.328125 6.011719 -6.910156 5.671875 -6.632812 C 5.332031 -6.351562 4.882812 -6.214844 4.324219 -6.214844 L 2.246094 -6.214844 L 2.246094 -9.5 L 4.011719 -9.5 C 5.453125 -9.5 6.183594 -8.957031 6.183594 -7.902344 Z M 6.957031 -3.144531 C 6.957031 -2.511719 6.742188 -2 6.308594 -1.613281 C 5.886719 -1.222656 5.347656 -1.039062 4.695312 -1.039062 L 2.246094 -1.039062 L 2.246094 -5.128906 L 4.867188 -5.128906 C 5.40625 -5.128906 5.886719 -4.941406 6.308594 -4.570312 C 6.492188 -4.402344 6.648438 -4.199219 6.773438 -3.96875 C 6.894531 -3.71875 6.957031 -3.457031 6.957031 -3.144531 Z M 6.957031 -3.144531 "/></g></g></g><g fill="#ffffff" fill-opacity="1"><g transform="translate(63.548808, 21.048389)"><g><path d="M 7.824219 -3.5625 C 7.824219 -4.492188 7.453125 -5.300781 6.742188 -5.996094 C 6.042969 -6.664062 5.207031 -7.003906 4.261719 -7.003906 C 3.269531 -7.003906 2.433594 -6.648438 1.734375 -5.949219 C 1.039062 -5.253906 0.699219 -4.417969 0.699219 -3.441406 C 0.699219 -2.449219 1.039062 -1.613281 1.734375 -0.929688 C 2.0625 -0.605469 2.433594 -0.355469 2.867188 -0.171875 C 3.300781 0.015625 3.8125 0.109375 4.417969 0.109375 C 5.019531 0.109375 5.609375 -0.078125 6.199219 -0.449219 C 6.789062 -0.820312 7.222656 -1.347656 7.515625 -2 L 6.277344 -2 C 6.027344 -1.671875 5.734375 -1.425781 5.378906 -1.238281 C 5.019531 -1.054688 4.648438 -0.976562 4.261719 -0.976562 C 3.671875 -0.976562 3.144531 -1.164062 2.679688 -1.550781 C 2.214844 -1.921875 1.921875 -2.402344 1.828125 -2.992188 L 7.824219 -2.992188 Z M 6.679688 -3.921875 L 1.84375 -3.921875 C 1.90625 -4.199219 2.015625 -4.460938 2.167969 -4.710938 C 2.664062 -5.515625 3.363281 -5.917969 4.261719 -5.917969 C 4.835938 -5.917969 5.347656 -5.734375 5.796875 -5.363281 C 6.261719 -4.972656 6.539062 -4.492188 6.679688 -3.921875 Z M 6.679688 -3.921875 "/></g></g></g><g fill="#ffffff" fill-opacity="1"><g transform="translate(72.611544, 21.048389)"><g><path d="M 6.585938 -3.410156 C 6.585938 -2.742188 6.351562 -2.152344 5.886719 -1.671875 C 5.421875 -1.175781 4.851562 -0.929688 4.183594 -0.929688 C 3.503906 -0.929688 2.929688 -1.175781 2.464844 -1.671875 C 2 -2.152344 1.78125 -2.742188 1.78125 -3.410156 C 1.78125 -4.058594 2 -4.648438 2.464844 -5.144531 C 2.929688 -5.640625 3.503906 -5.886719 4.183594 -5.886719 C 4.851562 -5.886719 5.421875 -5.640625 5.886719 -5.144531 C 6.351562 -4.648438 6.585938 -4.058594 6.585938 -3.410156 Z M 7.671875 0 L 7.671875 -6.816406 L 6.585938 -6.816406 L 6.585938 -5.640625 C 6.523438 -5.734375 6.445312 -5.8125 6.382812 -5.886719 C 5.734375 -6.601562 4.941406 -6.972656 4.011719 -6.972656 C 3.066406 -6.972656 2.277344 -6.601562 1.628906 -5.886719 C 1.007812 -5.175781 0.699219 -4.355469 0.699219 -3.410156 C 0.699219 -2.449219 1.007812 -1.628906 1.628906 -0.929688 C 2.277344 -0.203125 3.066406 0.15625 4.011719 0.15625 C 4.941406 0.15625 5.734375 -0.203125 6.382812 -0.929688 C 6.445312 -0.992188 6.523438 -1.070312 6.585938 -1.164062 L 6.585938 0 Z M 7.671875 0 "/></g></g></g><g fill="#ffffff" fill-opacity="1"><g transform="translate(82.061559, 21.048389)"><g><path d="M 5.871094 -1.164062 L 5.871094 0 L 6.957031 0 L 6.957031 -6.816406 L 5.871094 -6.816406 L 5.871094 -3.96875 C 5.871094 -3.007812 5.6875 -2.277344 5.332031 -1.734375 C 4.988281 -1.207031 4.386719 -0.945312 3.546875 -0.945312 C 3.082031 -0.945312 2.742188 -1.101562 2.542969 -1.410156 C 2.339844 -1.71875 2.246094 -2.109375 2.246094 -2.558594 L 2.246094 -6.816406 L 1.164062 -6.816406 L 1.164062 -2.558594 C 1.164062 -1.765625 1.363281 -1.117188 1.796875 -0.605469 C 2.230469 -0.109375 2.820312 0.140625 3.59375 0.140625 C 4.601562 0.140625 5.363281 -0.292969 5.871094 -1.164062 Z M 5.871094 -1.164062 "/></g></g></g><g fill="#ffffff" fill-opacity="1"><g transform="translate(90.566605, 21.048389)"><g><path d="M 0.308594 -5.8125 L 2.015625 -5.8125 L 2.015625 0 L 3.097656 0 L 3.097656 -5.8125 L 4.789062 -5.8125 L 4.789062 -6.816406 L 3.097656 -6.816406 L 3.097656 -9.46875 L 2.015625 -9.46875 L 2.015625 -6.816406 L 0.308594 -6.816406 Z M 0.308594 -5.8125 "/></g></g></g><g fill="#ffffff" fill-opacity="1"><g transform="translate(96.283195, 21.048389)"><g><path d="M 2.03125 3.875 L 6.742188 -6.816406 L 5.53125 -6.816406 L 3.578125 -2.246094 L 1.394531 -6.816406 L 0.15625 -6.816406 L 3.007812 -1.117188 L 0.710938 3.875 Z M 2.03125 3.875 "/></g></g></g><g fill="#211c1d" fill-opacity="0.149"><g transform="translate(9.414397, 26.075073)"><g><path d="M 15.035156 0 L 16.558594 0 L 13.171875 -15.53125 L 8.398438 -3.0625 L 3.621094 -15.53125 L 0.214844 0 L 1.757812 0 L 4.003906 -10.367188 L 8.398438 0.855469 L 12.765625 -10.367188 Z M 15.035156 0 "/></g></g></g><g fill="#ffffff" fill-opacity="1"><g transform="translate(8.46774, 25.128416)"><g><path d="M 15.035156 0 L 16.558594 0 L 13.171875 -15.53125 L 8.398438 -3.0625 L 3.621094 -15.53125 L 0.214844 0 L 1.757812 0 L 4.003906 -10.367188 L 8.398438 0.855469 L 12.765625 -10.367188 Z M 15.035156 0 "/></g></g></g><g fill="#211c1d" fill-opacity="0.149"><g transform="translate(13.033344, 19.419989)"><g><path d="M 5.582031 -6.46875 C 7.3125 -6.742188 8.054688 -7.554688 8.054688 -8.882812 C 8.054688 -11.097656 6.027344 -11.425781 4.183594 -11.425781 L 1 -11.425781 C 1.085938 -10.226562 1.113281 -9.652344 1.113281 -8.609375 L 1.113281 -2.8125 C 1.113281 -1.769531 1.085938 -1.199219 1 0 L 4.371094 0 C 6.742188 0 8.824219 -0.726562 8.824219 -3.171875 C 8.824219 -5.269531 7.3125 -6.167969 5.582031 -6.46875 Z M 2.511719 -11.195312 L 3.699219 -11.195312 C 4.941406 -11.195312 6.597656 -10.753906 6.597656 -8.882812 C 6.597656 -7.425781 5.871094 -6.597656 3.855469 -6.597656 L 2.511719 -6.597656 Z M 3.839844 -0.226562 L 2.511719 -0.226562 L 2.511719 -6.367188 L 4 -6.367188 C 5.210938 -6.367188 7.28125 -5.785156 7.28125 -3.183594 C 7.28125 -1.015625 5.65625 -0.226562 3.839844 -0.226562 Z M 3.839844 -0.226562 "/></g></g></g><g fill="#ffffff" fill-opacity="1"><g transform="translate(12.402241, 18.788885)"><g><path d="M 5.582031 -6.46875 C 7.3125 -6.742188 8.054688 -7.554688 8.054688 -8.882812 C 8.054688 -11.097656 6.027344 -11.425781 4.183594 -11.425781 L 1 -11.425781 C 1.085938 -10.226562 1.113281 -9.652344 1.113281 -8.609375 L 1.113281 -2.8125 C 1.113281 -1.769531 1.085938 -1.199219 1 0 L 4.371094 0 C 6.742188 0 8.824219 -0.726562 8.824219 -3.171875 C 8.824219 -5.269531 7.3125 -6.167969 5.582031 -6.46875 Z M 2.511719 -11.195312 L 3.699219 -11.195312 C 4.941406 -11.195312 6.597656 -10.753906 6.597656 -8.882812 C 6.597656 -7.425781 5.871094 -6.597656 3.855469 -6.597656 L 2.511719 -6.597656 Z M 3.839844 -0.226562 L 2.511719 -0.226562 L 2.511719 -6.367188 L 4 -6.367188 C 5.210938 -6.367188 7.28125 -5.785156 7.28125 -3.183594 C 7.28125 -1.015625 5.65625 -0.226562 3.839844 -0.226562 Z M 3.839844 -0.226562 "/></g></g></g><g clip-path="url(#9e0f143736)"><path fill="#ffdc5c" d="M 19.652344 2.960938 C 19.652344 2.980469 19.652344 3 19.644531 3.019531 L 19.207031 4.78125 C 19.1875 4.871094 19.105469 4.933594 19.015625 4.933594 L 16.382812 4.945312 L 13.75 4.945312 C 13.660156 4.945312 13.582031 4.886719 13.558594 4.792969 L 13.117188 3.027344 C 13.113281 3.007812 13.113281 2.984375 13.113281 2.96875 C 12.941406 2.914062 12.820312 2.753906 12.820312 2.566406 C 12.820312 2.335938 13.007812 2.144531 13.242188 2.144531 C 13.472656 2.144531 13.660156 2.335938 13.660156 2.566406 C 13.660156 2.699219 13.601562 2.816406 13.507812 2.890625 L 14.058594 3.445312 C 14.191406 3.585938 14.386719 3.664062 14.582031 3.664062 C 14.816406 3.664062 15.039062 3.554688 15.179688 3.371094 L 16.078125 2.167969 C 16 2.09375 15.957031 1.988281 15.957031 1.875 C 15.957031 1.640625 16.144531 1.453125 16.375 1.453125 C 16.609375 1.453125 16.796875 1.640625 16.796875 1.875 C 16.796875 1.984375 16.75 2.085938 16.679688 2.164062 L 17.574219 3.367188 C 17.714844 3.554688 17.9375 3.664062 18.171875 3.664062 C 18.371094 3.664062 18.554688 3.589844 18.695312 3.445312 L 19.25 2.890625 C 19.152344 2.816406 19.09375 2.699219 19.09375 2.5625 C 19.09375 2.332031 19.28125 2.144531 19.511719 2.144531 C 19.742188 2.144531 19.933594 2.332031 19.933594 2.5625 C 19.929688 2.75 19.8125 2.902344 19.652344 2.960938 Z M 19.164062 5.574219 C 19.164062 5.464844 19.074219 5.375 18.964844 5.375 L 13.808594 5.375 C 13.699219 5.375 13.609375 5.464844 13.609375 5.574219 L 13.609375 6.054688 C 13.609375 6.164062 13.699219 6.253906 13.808594 6.253906 L 18.964844 6.253906 C 19.074219 6.253906 19.164062 6.164062 19.164062 6.054688 Z M 19.164062 5.574219 " fill-opacity="1" fill-rule="nonzero"/></g></svg>