<svg version="1.0" class="svg" xmlns="http://www.w3.org/2000/svg" width="200px" height="100px"
                viewBox="0 0 500.000000 200.000000" preserveAspectRatio="xMidYMid meet">
                <g class="logo2" transform="translate(0.000000,200.000000) scale(0.100000,-0.100000)" fill="#000000"
                    stroke="none">
                    <path d="M2360 1834 c0 -3 14 -25 31 -49 30 -42 31 -43 14 -75 -12 -24 -16
           -48 -12 -83 4 -43 10 -55 45 -87 33 -31 42 -46 47 -86 3 -27 13 -78 22 -114
           16 -60 27 -300 32 -664 0 -49 4 -86 9 -82 4 4 25 133 48 286 l40 278 -29 39
           c-48 62 -86 154 -93 220 -8 74 0 110 26 118 52 17 80 128 46 192 -21 42 -50
           56 -97 50 -32 -4 -41 -1 -70 29 -29 30 -59 44 -59 28z m197 -116 c28 -32 34
           -66 18 -104 -16 -38 -41 -54 -85 -54 -73 0 -108 97 -55 154 32 35 92 36 122 4z
           m33 -538 c-20 -13 -33 -13 -25 0 3 6 14 10 23 10 15 0 15 -2 2 -10z m10 -20
           c0 -5 -8 -10 -17 -10 -15 0 -16 2 -3 10 19 12 20 12 20 0z" />
                    <path d="M2685 1668 c-11 -6 -32 -23 -47 -37 -25 -24 -26 -29 -17 -75 5 -27
           16 -61 25 -74 23 -35 12 -131 -22 -199 l-27 -52 21 -26 c23 -30 25 -26 37 60
           12 89 64 175 106 175 24 0 66 46 80 87 15 46 -1 104 -38 132 -28 23 -86 27
           -118 9z m109 -44 c38 -38 36 -95 -3 -135 -40 -40 -81 -39 -115 2 -75 88 37
           214 118 133z" />
                    <path d="M908 1273 c-29 -34 -368 -654 -368 -673 0 -13 7 -20 20 -20 14 0 35
           28 80 110 l62 110 223 0 224 0 61 -110 c45 -80 67 -110 81 -110 13 0 19 7 19
           21 0 22 -341 642 -369 672 -17 17 -18 17 -33 0z m123 -251 l97 -177 -99 -3
           c-54 -1 -145 -1 -202 0 l-104 3 100 183 c55 100 103 180 105 177 3 -3 49 -85
           103 -183z" />
                    <path d="M1353 1283 c-20 -7 -19 -689 1 -696 33 -13 36 13 36 349 0 338 -2
           359 -37 347z" />
                    <path d="M2720 1270 c-7 -14 -10 -127 -8 -345 3 -277 5 -327 18 -335 32 -20
           40 17 40 182 l0 158 278 -2 277 -3 3 -165 c3 -165 9 -193 39 -168 20 17 19
           671 -2 688 -29 24 -35 0 -35 -156 l0 -154 -280 0 -280 0 0 148 c0 102 -4 152
           -12 160 -17 17 -26 15 -38 -8z" />
                    <path d="M4111 1222 c-8 -15 -7 -23 4 -32 23 -19 50 -8 50 20 0 32 -39 41 -54
           12z" />
                    <path d="M1639 1064 c-30 -9 -59 -27 -78 -49 l-31 -36 0 29 c0 15 -6 37 -14
           48 -12 16 -17 17 -28 6 -18 -18 -19 -455 0 -474 28 -28 37 9 42 189 l5 175 38
           33 c60 52 119 62 262 43 35 -5 26 36 -10 43 -52 11 -138 8 -186 -7z" />
                    <path d="M2000 1070 c-66 -10 -110 -26 -110 -39 0 -20 20 -21 87 -5 48 11 102
           15 183 12 101 -3 119 -6 148 -26 39 -29 60 -67 68 -126 l7 -45 -43 15 c-62 21
           -210 33 -297 23 -125 -14 -183 -62 -183 -152 0 -99 79 -142 260 -142 99 0 122
           3 165 23 27 13 60 33 72 44 l23 21 0 -35 c0 -41 20 -64 38 -46 17 17 16 272
           -2 331 -19 63 -50 104 -99 129 -34 17 -62 22 -152 24 -60 2 -135 -1 -165 -6z
           m275 -233 l100 -12 3 -66 c3 -66 2 -67 -30 -87 -89 -54 -285 -72 -372 -33 -50
           22 -66 44 -66 93 0 103 108 135 365 105z" />
                    <path d="M3625 1073 c-61 -8 -135 -25 -139 -32 -3 -4 -1 -12 3 -19 5 -9 25 -8
           82 4 109 23 288 16 325 -12 45 -33 66 -68 72 -119 5 -47 4 -48 -19 -41 -70 19
           -135 27 -234 27 -155 1 -220 -25 -251 -98 -31 -73 -5 -136 73 -174 43 -21 61
           -24 173 -24 133 0 185 14 236 63 l22 21 6 -40 c5 -29 11 -39 25 -39 27 0 31
           28 27 175 -6 194 -43 268 -150 300 -46 14 -175 18 -251 8z m240 -236 l100 -12
           3 -67 c3 -67 3 -68 -30 -88 -77 -47 -246 -67 -345 -41 -48 13 -93 60 -93 97 0
           33 26 81 51 94 54 29 158 35 314 17z" />
                    <path d="M4419 1064 c-29 -9 -59 -27 -77 -49 l-31 -34 -3 42 c-2 34 -7 42 -23
           42 -19 0 -20 -8 -23 -234 -2 -239 2 -267 35 -239 10 8 13 53 13 172 0 186 8
           209 82 248 35 18 59 22 123 21 44 0 89 -2 100 -4 31 -6 26 33 -5 42 -42 12
           -143 8 -191 -7z" />
                    <path d="M4122 1058 c-9 -9 -12 -73 -12 -234 0 -187 2 -224 15 -234 31 -26 35
           3 33 240 -3 231 -7 257 -36 228z" />
                    <path d="M2970 484 c-11 -12 -10 -18 3 -32 16 -15 18 -15 34 0 13 14 14 20 3
           32 -7 9 -16 16 -20 16 -4 0 -13 -7 -20 -16z" />
                    <path d="M2765 483 c-28 -7 -43 -23 -22 -23 12 0 17 -8 17 -30 0 -28 -1 -29
           -25 -18 -22 10 -30 8 -53 -9 -22 -16 -28 -29 -30 -68 -5 -69 13 -84 99 -84 38
           0 69 5 69 10 0 5 -5 9 -11 9 -8 0 -10 34 -7 110 2 71 0 110 -7 109 -5 -1 -19
           -3 -30 -6z m-7 -151 c2 -42 0 -54 -14 -59 -19 -7 -54 29 -54 56 0 26 30 62 48
           59 13 -2 18 -16 20 -56z" />
                    <path d="M1858 453 c-40 -47 -28 -85 36 -112 49 -22 59 -32 50 -55 -13 -33
           -68 -30 -77 5 -7 28 -37 24 -37 -5 0 -28 16 -36 76 -36 50 0 84 25 84 63 0 28
           -22 50 -72 70 -42 18 -51 49 -20 66 21 11 36 4 45 -22 8 -22 31 -17 35 8 5 24
           -15 35 -64 35 -27 0 -46 -6 -56 -17z" />
                    <path d="M2147 453 c-4 -3 -7 -15 -7 -25 0 -10 -7 -18 -15 -18 -8 0 -15 -4
           -15 -10 0 -5 5 -10 10 -10 6 0 10 -26 10 -59 0 -39 5 -63 14 -70 19 -16 68
           -10 74 7 3 9 -3 12 -14 10 -16 -3 -19 5 -22 55 -3 52 -1 57 18 57 11 0 20 5
           20 10 0 6 -9 10 -20 10 -15 0 -20 7 -20 25 0 24 -18 34 -33 18z" />
                    <path d="M3204 406 c-35 -15 -44 -32 -44 -82 0 -47 29 -74 80 -74 53 0 80 27
           80 80 0 38 -26 80 -49 80 -5 0 -15 2 -23 5 -7 2 -27 -2 -44 -9z m54 -18 c17
           -17 15 -103 -3 -118 -33 -27 -61 34 -43 96 9 35 25 43 46 22z" />
                    <path d="M2340 400 c0 -5 4 -10 10 -10 5 0 10 -30 12 -67 l3 -68 33 -3 c18 -2
           40 2 48 9 10 8 14 8 14 0 0 -6 14 -11 30 -11 17 0 30 5 30 10 0 6 -4 10 -10
           10 -6 0 -10 30 -10 70 l0 70 -30 0 c-16 0 -30 -4 -30 -10 0 -5 5 -10 10 -10 6
           0 10 -22 10 -50 0 -40 -4 -51 -21 -61 -30 -15 -39 2 -39 74 0 57 0 57 -30 57
           -16 0 -30 -4 -30 -10z" />
                    <path d="M2968 403 c-19 -5 -25 -23 -8 -23 6 0 10 -25 10 -55 0 -30 -4 -55
           -10 -55 -5 0 -10 -4 -10 -10 0 -5 18 -10 41 -10 33 0 40 3 35 16 -3 9 -6 45
           -6 80 0 67 -2 70 -52 57z" />
                </g>
            </svg>