<svg xmlns="http://www.w3.org/2000/svg" xmlns:xlink="http://www.w3.org/1999/xlink" width="80"
                    zoomAndPan="magnify" viewBox="0 0 375 374.999991" height="80" preserveAspectRatio="xMidYMid meet"
                    version="1.0" style="margin: 0px 0px 13px;">
                    <defs>
                        <clipPath id="373dea4a60">
                            <path d="M 37.5 0 L 350.25 0 L 350.25 375 L 37.5 375 Z M 37.5 0 " clip-rule="nonzero" />
                        </clipPath>
                    </defs>
                    <g clip-path="url(#373dea4a60)">
                        <path fill="#ffffff"
                            d="M -66.078125 186.167969 C -66.078125 43.289062 49.789062 -72.582031 192.671875 -72.582031 C 335.550781 -72.582031 451.421875 43.289062 451.421875 186.167969 C 451.421875 329.050781 335.550781 444.917969 192.671875 444.917969 C 49.789062 444.917969 -66.078125 329.050781 -66.078125 186.167969 "
                            fill-opacity="1" fill-rule="nonzero" />
                    </g>
                    <path fill="#efe9d8"
                        d="M 152.414062 23.472656 C 152.414062 23.472656 139.273438 18.46875 118.207031 18.050781 L 114.867188 18.050781 C 93.699219 18.570312 80.660156 23.472656 80.660156 23.472656 L 80.660156 55.074219 L 152.414062 55.074219 Z M 152.414062 23.472656 "
                        fill-opacity="1" fill-rule="nonzero" />
                    <path fill="#4682B4"
                        d="M 80.660156 26.394531 L 152.414062 26.394531 L 152.414062 57.992188 L 80.660156 57.992188 Z M 80.660156 26.394531 "
                        fill-opacity="1" fill-rule="nonzero" />
                    <path fill="#87CEFA"
                        d="M 173.480469 67.902344 C 171.1875 63.105469 152.414062 52.777344 152.414062 52.777344 L 80.660156 52.777344 C 80.660156 52.777344 61.886719 63.207031 59.59375 67.902344 C 53.859375 80 179.113281 80 173.480469 67.902344 "
                        fill-opacity="1" fill-rule="nonzero" />
                    <path fill="#ADD8E6"
                        d="M 173.480469 67.902344 L 59.59375 67.902344 C 53.859375 80 52.398438 129.121094 53.128906 182.519531 L 179.84375 182.519531 C 180.574219 129.121094 179.113281 80 173.480469 67.902344 "
                        fill-opacity="1" fill-rule="nonzero" />
                    <path fill="#603f26"
                        d="M 117.789062 113.6875 L 137.1875 113.6875 L 137.1875 150.085938 L 117.789062 150.085938 Z M 117.789062 113.6875 "
                        fill-opacity="1" fill-rule="nonzero" />
                    <path fill="#f4f2e9"
                        d="M 136.875 111.390625 C 136.875 87.613281 127.695312 82.191406 116.328125 82.191406 C 104.960938 82.191406 95.785156 87.613281 95.785156 111.390625 C 95.785156 119.421875 97.242188 121.714844 99.328125 126.617188 C 104.023438 137.359375 112.261719 143.097656 116.226562 143.097656 C 120.1875 143.097656 128.425781 137.257812 133.121094 126.617188 C 135.414062 121.714844 136.875 119.421875 136.875 111.390625 "
                        fill-opacity="1" fill-rule="nonzero" />
                    <path fill="#ffffff"
                        d="M 95.886719 111.390625 C 95.886719 119.421875 97.347656 121.714844 99.433594 126.617188 C 104.125 137.257812 112.261719 142.992188 116.226562 143.097656 L 116.226562 82.191406 C 104.960938 82.191406 95.886719 87.71875 95.886719 111.390625 "
                        fill-opacity="1" fill-rule="nonzero" />
                    <path fill="#49210d"
                        d="M 96.097656 171.882812 C 96.097656 171.882812 96.304688 171.777344 96.617188 171.671875 Z M 96.097656 171.882812 "
                        fill-opacity="1" fill-rule="nonzero" />
                    <path fill="#845938"
                        d="M 109.65625 93.453125 L 110.382812 80.519531 C 99.015625 80.519531 89.941406 87.507812 86.292969 105.132812 C 85.355469 109.515625 82.746094 129.539062 94.636719 154.359375 C 100.894531 167.5 98.183594 170.527344 96.617188 171.464844 C 97.453125 171.253906 114.347656 167.605469 107.777344 151.855469 C 107.152344 150.292969 109.027344 139.65625 107.046875 137.882812 L 106.734375 137.570312 C 104.023438 134.855469 101.3125 131.101562 99.328125 126.515625 C 98.496094 124.636719 97.765625 123.175781 97.242188 121.613281 C 96.410156 119.214844 102.769531 97.625 109.65625 93.453125 "
                        fill-opacity="1" fill-rule="nonzero" />
                    <path fill="#f4f2e9"
                        d="M 154.1875 160.828125 C 152.621094 154.984375 141.253906 150.085938 126.132812 148.625 C 125.925781 148.207031 123.421875 143.929688 126.445312 134.960938 L 106.421875 134.960938 C 109.339844 143.828125 107.046875 148.101562 106.734375 148.625 C 91.613281 150.085938 80.242188 154.984375 78.679688 160.828125 C 77.84375 163.953125 76.90625 169.898438 76.070312 175.636719 L 158.566406 183.5625 C 157.734375 177.824219 155.023438 163.953125 154.1875 160.828125 "
                        fill-opacity="1" fill-rule="nonzero" />
                    <path fill="#ffffff"
                        d="M 106.421875 134.960938 C 109.339844 143.828125 107.046875 148.101562 106.734375 148.625 C 91.613281 150.085938 80.242188 154.984375 78.679688 160.828125 C 77.84375 163.953125 76.90625 169.898438 76.070312 175.636719 L 116.328125 179.496094 L 116.328125 134.960938 Z M 106.421875 134.960938 "
                        fill-opacity="1" fill-rule="nonzero" />
                    <path fill="#4682B4"
                        d="M 117.269531 176.261719 C 89.839844 167.5 68.042969 167.398438 53.023438 169.484375 L 53.023438 169.585938 C 53.023438 241.757812 58.445312 327.070312 62.722656 340.3125 C 65.539062 349.179688 68.042969 354.394531 88.273438 354.394531 L 144.90625 354.394531 C 165.136719 354.394531 167.640625 349.179688 170.457031 340.3125 C 174.421875 327.796875 179.007812 252.082031 179.949219 183.144531 C 165.242188 185.125 144.175781 184.8125 117.269531 176.261719 "
                        fill-opacity="1" fill-rule="nonzero" />
                    <path fill=" #87CEFA"
                        d="M 179.949219 175.949219 C 179.949219 173.757812 179.949219 171.570312 180.050781 169.378906 L 180.050781 169.167969 C 165.347656 171.152344 144.28125 170.941406 117.269531 162.285156 C 89.839844 153.527344 68.042969 153.421875 52.917969 155.507812 L 52.917969 169.378906 C 67.9375 167.292969 89.734375 167.398438 117.164062 176.15625 C 143.964844 184.710938 165.136719 185.023438 179.738281 183.039062 C 179.738281 180.746094 179.84375 178.453125 179.84375 176.261719 C 179.949219 176.15625 179.949219 176.054688 179.949219 175.949219 "
                        fill-opacity="1" fill-rule="nonzero" />
                    <path fill="#775030"
                        d="M 109.65625 93.453125 C 109.65625 93.453125 114.972656 97.417969 118.519531 100.230469 C 128.21875 108.160156 133.746094 115.25 134.683594 124.011719 C 135.308594 129.644531 130.929688 139.027344 129.054688 142.261719 C 127.382812 145.183594 124.359375 149.144531 123.628906 150.8125 C 116.851562 166.980469 136.144531 171.777344 136.144531 171.777344 L 136.667969 171.882812 C 136.667969 171.882812 128.949219 169.378906 138.125 154.464844 C 139.585938 152.171875 144.800781 146.851562 146.886719 140.070312 C 150.539062 128.078125 148.972656 117.230469 147.617188 111.808594 C 143.863281 97.417969 141.671875 91.890625 132.597656 86.046875 C 125.925781 81.773438 121.960938 80.519531 110.28125 80.519531 Z M 109.65625 93.453125 "
                        fill-opacity="1" fill-rule="nonzero" />
                    <path fill="#efe9d8"
                        d="M 126.445312 25.871094 C 126.445312 30.355469 121.960938 34.007812 116.539062 34.007812 C 111.113281 34.007812 106.628906 30.355469 106.628906 25.871094 Z M 126.445312 25.871094 "
                        fill-opacity="1" fill-rule="nonzero" />
                    <path fill="#ffffff"
                        d="M 151.476562 238.523438 L 81.601562 238.523438 C 80.035156 238.523438 78.785156 237.273438 78.785156 235.707031 C 78.785156 234.144531 80.035156 232.890625 81.601562 232.890625 L 151.476562 232.890625 C 153.039062 232.890625 154.292969 234.144531 154.292969 235.707031 C 154.292969 237.273438 153.039062 238.523438 151.476562 238.523438 "
                        fill-opacity="1" fill-rule="nonzero" />
                    <path fill="#ffffff"
                        d="M 151.476562 221.105469 L 81.601562 221.105469 C 80.035156 221.105469 78.785156 219.855469 78.785156 218.292969 C 78.785156 216.726562 80.035156 215.476562 81.601562 215.476562 L 151.476562 215.476562 C 153.039062 215.476562 154.292969 216.726562 154.292969 218.292969 C 154.292969 219.855469 153.039062 221.105469 151.476562 221.105469 "
                        fill-opacity="1" fill-rule="nonzero" />
                    <path fill="#ffffff"
                        d="M 151.476562 256.046875 L 81.601562 256.046875 C 80.035156 256.046875 78.785156 254.792969 78.785156 253.230469 C 78.785156 251.664062 80.035156 250.414062 81.601562 250.414062 L 151.476562 250.414062 C 153.039062 250.414062 154.292969 251.664062 154.292969 253.230469 C 154.292969 254.792969 153.039062 256.046875 151.476562 256.046875 "
                        fill-opacity="1" fill-rule="nonzero" />
                    <path fill="#ffffff"
                        d="M 131.242188 313.09375 C 131.242188 315.492188 130.617188 317.578125 129.46875 319.457031 C 128.21875 321.332031 126.445312 322.792969 124.152344 323.835938 C 121.855469 324.878906 119.039062 325.398438 115.910156 325.398438 C 112.054688 325.398438 108.925781 324.671875 106.421875 323.210938 C 104.648438 322.167969 103.1875 320.8125 102.144531 319.039062 C 101 317.265625 100.476562 315.597656 100.476562 313.929688 C 100.476562 312.988281 100.789062 312.15625 101.519531 311.527344 C 102.144531 310.800781 102.980469 310.484375 104.023438 310.484375 C 104.855469 310.484375 105.585938 310.800781 106.109375 311.320312 C 106.628906 311.84375 107.152344 312.675781 107.570312 313.71875 C 108.089844 314.972656 108.613281 316.011719 109.132812 316.847656 C 109.65625 317.683594 110.488281 318.414062 111.53125 318.933594 C 112.574219 319.457031 113.929688 319.769531 115.597656 319.769531 C 117.894531 319.769531 119.769531 319.246094 121.230469 318.097656 C 122.691406 316.953125 123.421875 315.699219 123.421875 314.03125 C 123.421875 312.78125 123.003906 311.738281 122.273438 310.902344 C 121.441406 310.070312 120.5 309.441406 119.25 309.027344 C 117.996094 308.609375 116.328125 308.191406 114.242188 307.671875 C 111.425781 307.042969 109.132812 306.210938 107.253906 305.375 C 105.378906 304.542969 103.917969 303.289062 102.769531 301.828125 C 101.625 300.371094 101.101562 298.492188 101.101562 296.199219 C 101.101562 294.113281 101.726562 292.128906 102.875 290.460938 C 104.023438 288.792969 105.691406 287.542969 107.882812 286.601562 C 110.070312 285.664062 112.679688 285.246094 115.703125 285.246094 C 118.101562 285.246094 120.1875 285.558594 121.855469 286.1875 C 123.628906 286.8125 125.089844 287.542969 126.238281 288.585938 C 127.382812 289.628906 128.21875 290.566406 128.738281 291.714844 C 129.261719 292.757812 129.574219 293.800781 129.574219 294.84375 C 129.574219 295.78125 129.261719 296.613281 128.53125 297.34375 C 127.90625 298.074219 127.070312 298.492188 126.027344 298.492188 C 125.089844 298.492188 124.464844 298.285156 123.941406 297.867188 C 123.421875 297.449219 123.003906 296.71875 122.378906 295.675781 C 121.648438 294.214844 120.8125 293.070312 119.875 292.234375 C 118.9375 291.402344 117.269531 290.984375 115.078125 290.984375 C 113.097656 290.984375 111.425781 291.402344 110.175781 292.339844 C 108.925781 293.277344 108.296875 294.320312 108.296875 295.574219 C 108.296875 296.300781 108.507812 297.03125 108.925781 297.554688 C 109.339844 298.074219 109.96875 298.597656 110.699219 299.015625 C 111.425781 299.429688 112.15625 299.742188 112.992188 299.953125 C 113.722656 300.160156 114.972656 300.472656 116.746094 300.996094 C 118.9375 301.515625 120.917969 302.039062 122.691406 302.664062 C 124.464844 303.289062 125.925781 304.019531 127.175781 304.957031 C 128.425781 305.792969 129.367188 306.941406 130.097656 308.296875 C 130.824219 309.652344 131.242188 311.113281 131.242188 313.09375 "
                        fill-opacity="1" fill-rule="nonzero" />
                    <path fill="#efe9d8"
                        d="M 304.679688 23.472656 C 304.679688 23.472656 291.539062 18.46875 270.472656 18.050781 L 267.136719 18.050781 C 245.964844 18.570312 232.929688 23.472656 232.929688 23.472656 L 232.929688 55.074219 L 304.679688 55.074219 Z M 304.679688 23.472656 "
                        fill-opacity="1" fill-rule="nonzero" />
                    <path fill="#4682B4"
                        d="M 233.03125 26.394531 L 304.785156 26.394531 L 304.785156 57.992188 L 233.03125 57.992188 Z M 233.03125 26.394531 "
                        fill-opacity="1" fill-rule="nonzero" />
                    <path fill="#ADD8E6"
                        d="M 325.75 67.902344 C 323.453125 63.105469 304.679688 52.777344 304.679688 52.777344 L 232.929688 52.777344 C 232.929688 52.777344 214.15625 63.207031 211.859375 67.902344 C 206.230469 80 331.484375 80 325.75 67.902344 "
                        fill-opacity="1" fill-rule="nonzero" />
                    <path fill="#4682B4"
                        d="M 325.75 67.902344 L 211.859375 67.902344 C 206.125 80 204.664062 129.121094 205.394531 182.519531 L 332.109375 182.519531 C 332.945312 129.121094 331.484375 80 325.75 67.902344 "
                        fill-opacity="1" fill-rule="nonzero" />
                    <path fill="#603f26"
                        d="M 270.054688 113.6875 L 289.453125 113.6875 L 289.453125 150.085938 L 270.054688 150.085938 Z M 270.054688 113.6875 "
                        fill-opacity="1" fill-rule="nonzero" />
                    <path fill="#f4f2e9"
                        d="M 289.246094 111.390625 C 289.246094 87.613281 280.070312 82.191406 268.699219 82.191406 C 257.332031 82.191406 248.15625 87.613281 248.15625 111.390625 C 248.15625 119.421875 249.613281 121.714844 251.699219 126.617188 C 256.394531 137.359375 264.632812 143.097656 268.597656 143.097656 C 272.558594 143.097656 280.796875 137.257812 285.492188 126.617188 C 287.785156 121.714844 289.246094 119.421875 289.246094 111.390625 "
                        fill-opacity="1" fill-rule="nonzero" />
                    <path fill="#ffffff"
                        d="M 248.15625 111.390625 C 248.15625 119.421875 249.613281 121.714844 251.699219 126.617188 C 256.394531 137.257812 264.527344 142.992188 268.492188 143.097656 L 268.492188 82.191406 C 257.332031 82.191406 248.15625 87.71875 248.15625 111.390625 "
                        fill-opacity="1" fill-rule="nonzero" />
                    <path fill="#49210d"
                        d="M 248.46875 171.882812 C 248.46875 171.882812 248.675781 171.777344 248.988281 171.671875 Z M 248.46875 171.882812 "
                        fill-opacity="1" fill-rule="nonzero" />
                    <path fill="#845938"
                        d="M 262.027344 93.453125 L 262.757812 80.519531 C 251.386719 80.519531 242.316406 87.507812 238.664062 105.132812 C 237.726562 109.515625 235.117188 129.539062 247.007812 154.359375 C 253.265625 167.5 250.554688 170.527344 248.988281 171.464844 C 249.824219 171.253906 266.71875 167.605469 260.148438 151.855469 C 259.523438 150.292969 261.398438 139.65625 259.417969 137.882812 L 259.105469 137.570312 C 256.394531 134.855469 253.683594 131.101562 251.699219 126.515625 C 250.867188 124.636719 250.136719 123.175781 249.613281 121.613281 C 248.78125 119.214844 255.039062 97.625 262.027344 93.453125 "
                        fill-opacity="1" fill-rule="nonzero" />
                    <path fill="#f4f2e9"
                        d="M 306.453125 160.828125 C 304.890625 154.984375 293.523438 150.085938 278.398438 148.625 C 278.191406 148.207031 275.6875 143.929688 278.710938 134.960938 L 258.6875 134.960938 C 261.609375 143.828125 259.3125 148.101562 259 148.625 C 243.773438 150.085938 232.511719 154.984375 230.945312 160.828125 C 230.113281 163.953125 229.171875 169.898438 228.339844 175.636719 L 310.835938 183.5625 C 310 177.824219 307.289062 163.953125 306.453125 160.828125 "
                        fill-opacity="1" fill-rule="nonzero" />
                    <path fill="#ffffff"
                        d="M 258.6875 134.960938 C 261.609375 143.828125 259.3125 148.101562 259 148.625 C 243.773438 150.085938 232.511719 154.984375 230.945312 160.828125 C 230.113281 163.953125 229.171875 169.898438 228.339844 175.636719 L 268.597656 179.496094 L 268.597656 134.960938 Z M 258.6875 134.960938 "
                        fill-opacity="1" fill-rule="nonzero" />
                    <path fill="#ADD8E6"
                        d="M 269.640625 176.261719 C 242.210938 167.5 220.414062 167.398438 205.394531 169.484375 L 205.394531 169.585938 C 205.394531 241.757812 210.816406 327.070312 215.09375 340.3125 C 217.910156 349.179688 220.414062 354.394531 240.644531 354.394531 L 297.277344 354.394531 C 317.507812 354.394531 320.011719 349.179688 322.828125 340.3125 C 326.792969 327.796875 331.378906 252.082031 332.320312 183.144531 C 317.507812 185.125 296.441406 184.8125 269.640625 176.261719 "
                        fill-opacity="1" fill-rule="nonzero" />
                    <path fill=" #87CEFA"
                        d="M 332.320312 175.949219 C 332.320312 173.757812 332.320312 171.570312 332.421875 169.378906 L 332.421875 169.167969 C 317.71875 171.152344 296.652344 170.941406 269.640625 162.285156 C 242.210938 153.527344 220.414062 153.421875 205.289062 155.507812 L 205.289062 169.378906 C 220.414062 167.292969 242.105469 167.398438 269.535156 176.15625 C 296.339844 184.710938 317.507812 185.023438 332.109375 183.039062 C 332.109375 180.746094 332.214844 178.453125 332.214844 176.261719 C 332.320312 176.15625 332.320312 176.054688 332.320312 175.949219 "
                        fill-opacity="1" fill-rule="nonzero" />
                    <path fill="#775030"
                        d="M 262.027344 93.453125 C 262.027344 93.453125 267.34375 97.417969 270.890625 100.230469 C 280.589844 108.160156 286.117188 115.25 287.054688 124.011719 C 287.683594 129.644531 283.300781 139.027344 281.425781 142.261719 C 279.753906 145.183594 276.730469 149.144531 276 150.8125 C 269.222656 166.980469 288.515625 171.777344 288.515625 171.777344 L 289.039062 171.882812 C 289.039062 171.882812 281.320312 169.378906 290.496094 154.464844 C 291.957031 152.171875 297.171875 146.851562 299.257812 140.070312 C 302.910156 128.078125 301.34375 117.230469 299.988281 111.808594 C 296.234375 97.417969 294.042969 91.890625 284.96875 86.046875 C 278.296875 81.773438 274.332031 80.519531 262.652344 80.519531 Z M 262.027344 93.453125 "
                        fill-opacity="1" fill-rule="nonzero" />
                    <path fill="#efe9d8"
                        d="M 278.710938 25.871094 C 278.710938 30.355469 274.226562 34.007812 268.804688 34.007812 C 263.382812 34.007812 258.898438 30.355469 258.898438 25.871094 Z M 278.710938 25.871094 "
                        fill-opacity="1" fill-rule="nonzero" />
                    <path fill="#4682B4"
                        d="M 303.742188 238.523438 L 233.867188 238.523438 C 232.300781 238.523438 231.050781 237.273438 231.050781 235.707031 C 231.050781 234.144531 232.300781 232.890625 233.867188 232.890625 L 303.742188 232.890625 C 305.308594 232.890625 306.558594 234.144531 306.558594 235.707031 C 306.558594 237.273438 305.308594 238.523438 303.742188 238.523438 "
                        fill-opacity="1" fill-rule="nonzero" />
                    <path fill="#4682B4"
                        d="M 303.742188 221.105469 L 233.867188 221.105469 C 232.300781 221.105469 231.050781 219.855469 231.050781 218.292969 C 231.050781 216.726562 232.300781 215.476562 233.867188 215.476562 L 303.742188 215.476562 C 305.308594 215.476562 306.558594 216.726562 306.558594 218.292969 C 306.558594 219.855469 305.308594 221.105469 303.742188 221.105469 "
                        fill-opacity="1" fill-rule="nonzero" />
                    <path fill="#4682B4"
                        d="M 303.742188 256.046875 L 233.867188 256.046875 C 232.300781 256.046875 231.050781 254.792969 231.050781 253.230469 C 231.050781 251.664062 232.300781 250.414062 233.867188 250.414062 L 303.742188 250.414062 C 305.308594 250.414062 306.558594 251.664062 306.558594 253.230469 C 306.558594 254.792969 305.308594 256.046875 303.742188 256.046875 "
                        fill-opacity="1" fill-rule="nonzero" />
                    <path fill="#4682B4"
                        d="M 284.96875 312.886719 C 284.96875 314.136719 284.65625 315.492188 284.03125 316.847656 C 283.40625 318.308594 282.46875 319.664062 281.113281 321.125 C 279.753906 322.480469 278.085938 323.628906 276.105469 324.460938 C 274.125 325.296875 271.726562 325.710938 269.011719 325.710938 C 266.925781 325.710938 265.15625 325.503906 263.382812 325.085938 C 261.609375 324.671875 260.148438 324.042969 258.792969 323.3125 C 257.4375 322.585938 256.1875 321.4375 255.039062 320.082031 C 253.996094 318.828125 253.160156 317.472656 252.429688 316.011719 C 251.699219 314.554688 251.179688 312.886719 250.761719 311.214844 C 250.449219 309.546875 250.242188 307.671875 250.242188 305.792969 C 250.242188 302.664062 250.65625 299.847656 251.597656 297.449219 C 252.535156 294.945312 253.785156 292.859375 255.457031 291.085938 C 257.125 289.316406 259.105469 287.957031 261.398438 287.125 C 263.695312 286.1875 266.09375 285.769531 268.699219 285.769531 C 271.828125 285.769531 274.644531 286.394531 277.042969 287.644531 C 279.546875 288.898438 281.425781 290.460938 282.675781 292.339844 C 284.03125 294.214844 284.65625 295.886719 284.65625 297.554688 C 284.65625 298.492188 284.34375 299.222656 283.71875 299.953125 C 283.09375 300.683594 282.363281 300.996094 281.425781 300.996094 C 280.382812 300.996094 279.652344 300.785156 279.128906 300.265625 C 278.609375 299.742188 278.085938 299.015625 277.460938 297.761719 C 276.417969 295.886719 275.269531 294.425781 273.8125 293.488281 C 272.351562 292.546875 270.683594 292.027344 268.699219 292.027344 C 265.46875 292.027344 262.859375 293.277344 260.984375 295.675781 C 259.105469 298.179688 258.0625 301.621094 258.0625 306.105469 C 258.0625 309.128906 258.480469 311.632812 259.3125 313.613281 C 260.148438 315.597656 261.398438 317.160156 262.964844 318.097656 C 264.527344 319.039062 266.300781 319.558594 268.386719 319.558594 C 270.683594 319.558594 272.558594 319.039062 274.125 317.890625 C 275.6875 316.742188 276.835938 315.074219 277.667969 312.988281 C 277.984375 311.945312 278.398438 311.113281 278.921875 310.484375 C 279.441406 309.859375 280.171875 309.546875 281.320312 309.546875 C 282.257812 309.546875 283.09375 309.859375 283.71875 310.484375 C 284.65625 311.113281 284.96875 311.945312 284.96875 312.886719 "
                        fill-opacity="1" fill-rule="nonzero" />
                </svg>