
<svg class="animated" id="freepik_stories-timeline" xmlns="http://www.w3.org/2000/svg" viewBox="0 0 750 500" version="1.1" xmlns:xlink="http://www.w3.org/1999/xlink" xmlns:svgjs="http://svgjs.com/svgjs"><style>svg#freepik_stories-timeline:not(.animated) .animable {opacity: 0;}svg#freepik_stories-timeline.animated #freepik--background-complete--inject-17 {animation: 2s 1 forwards cubic-bezier(.36,-0.01,.5,1.38) slideUp;animation-delay: 0s;}svg#freepik_stories-timeline.animated #freepik--Window--inject-17 {animation: 2s 1 forwards cubic-bezier(.36,-0.01,.5,1.38) slideRight;animation-delay: 0s;}svg#freepik_stories-timeline.animated #freepik--Plant--inject-17 {animation: 2s 1 forwards cubic-bezier(.36,-0.01,.5,1.38) zoomIn;animation-delay: 0s;}svg#freepik_stories-timeline.animated #freepik--Character--inject-17 {animation: 2s 1 forwards cubic-bezier(.36,-0.01,.5,1.38) slideDown;animation-delay: 0s;}            @keyframes slideUp {                0% {                    opacity: 0;                    transform: translateY(30px);                }                100% {                    opacity: 1;                    transform: inherit;                }            }                    @keyframes slideRight {                0% {                    opacity: 0;                    transform: translateX(30px);                }                100% {                    opacity: 1;                    transform: translateX(0);                }            }                    @keyframes zoomIn {                0% {                    opacity: 0;                    transform: scale(0.5);                }                100% {                    opacity: 1;                    transform: scale(1);                }            }                    @keyframes slideDown {                0% {                    opacity: 0;                    transform: translateY(-30px);                }                100% {                    opacity: 1;                    transform: translateY(0);                }            }        </style><g id="freepik--background-complete--inject-17" class="animable" style="transform-origin: 378.474px 257.89px;"><rect x="27.62" y="94.24" width="124.58" height="36.8" style="fill: rgb(255, 255, 255); transform-origin: 89.91px 112.64px;" id="el9y1ajfzcc4" class="animable"></rect><path d="M152.7,131.54H27.12V93.74H152.7Zm-124.58-1H151.7V94.74H28.12Z" style="fill: rgb(224, 224, 224); transform-origin: 89.91px 112.64px;" id="elhkyiyt97gj" class="animable"></path><g id="elxggl5twg5ic"><circle cx="46.98" cy="113.45" r="11.37" style="fill: rgb(235, 235, 235); transform-origin: 46.98px 113.45px; transform: rotate(-80.78deg);" class="animable"></circle></g><path d="M47.9,113.62a2.63,2.63,0,0,0,1.55-2.41,2.45,2.45,0,1,0-4.88,0,2.61,2.61,0,0,0,1.55,2.44c-3.76.56-3.58,4.64-3.58,4.64l8.88,0S51.62,114.18,47.9,113.62Z" style="fill: rgb(255, 255, 255); transform-origin: 46.9803px 113.414px;" id="elg4h5h4hbbk" class="animable"></path><path d="M137.88,113c0,.15-16,.26-35.84.26s-35.83-.11-35.83-.26,16-.26,35.83-.26S137.88,112.84,137.88,113Z" style="fill: rgb(224, 224, 224); transform-origin: 102.045px 113px;" id="elk0biq49tg3" class="animable"></path><rect x="116.47" y="37.75" width="124.58" height="36.8" style="fill: rgb(255, 255, 255); transform-origin: 178.76px 56.15px;" id="eljzj3nbqrs3" class="animable"></rect><path d="M241.55,75.05H116V37.25H241.55ZM117,74.05H240.55V38.25H117Z" style="fill: rgb(224, 224, 224); transform-origin: 178.775px 56.15px;" id="elc0krdjfduit" class="animable"></path><circle cx="135.82" cy="56.96" r="11.37" style="fill: rgb(235, 235, 235); transform-origin: 135.82px 56.96px;" id="el767glz2em0u" class="animable"></circle><path d="M136.74,57.13a2.6,2.6,0,0,0,1.55-2.41,2.45,2.45,0,1,0-4.88,0A2.6,2.6,0,0,0,135,57.13c-3.75.56-3.58,4.64-3.58,4.64l8.88,0S140.46,57.69,136.74,57.13Z" style="fill: rgb(255, 255, 255); transform-origin: 135.86px 56.9095px;" id="elfxkj0sl1e3p" class="animable"></path><path d="M226.72,56.5c0,.14-16,.26-35.83.26s-35.84-.12-35.84-.26,16-.26,35.84-.26S226.72,56.35,226.72,56.5Z" style="fill: rgb(224, 224, 224); transform-origin: 190.885px 56.5px;" id="elhjgph7r0jt7" class="animable"></path><path d="M622.26,242c-22.5-18.25-25.67-49.37-22.75-76.92.49-4.6.33-9.49,2.81-13.38s7.8-6.29,11.79-4c3.31,1.86,4.52,5.95,6.19,9.38a27,27,0,0,0,10.08,11.11c2.82,1.73,6.39,2.92,9.4,1.53,4.14-1.91,5-7.37,5.3-12L646.76,132c.3-4.58.62-9.27,2.36-13.52s5.18-8.06,9.63-9,9.67,2,10.26,6.55c.25,1.89-.27,3.81-.28,5.72s.73,4.08,2.5,4.74,3.72-.5,5.19-1.74c5.06-4.29,8.7-10,12.13-15.74S695.33,97.49,700,92.75s10.89-8.32,17.48-8.22,13.3,4.66,14.5,11.22-3,12.87-7.52,17.81a102.87,102.87,0,0,1-22.77,18.79c-1.52.92-3.17,1.91-3.84,3.57-1.22,3,1.46,6.23,4.41,7.45,3.33,1.39,7.07,1.3,10.61,2s7.31,2.53,8.42,6c1.54,4.82-2.74,9.45-6.82,12.39a88.13,88.13,0,0,1-27,13.12c-3.46,1-7.09,1.82-10,4s-4.83,6.18-3.41,9.53,5.55,4.68,9.13,4.28,6.88-2.09,10.34-3.12c6.47-1.93,14.58-.91,18.22,4.83,2.4,3.77,2.28,8.77.63,12.94s-4.64,7.65-7.77,10.84c-11,11.12-24.56,19.73-39.55,23.75s-28.62,4.42-42.77-1.94" style="fill: rgb(245, 245, 245); transform-origin: 665.391px 165.701px;" id="eltvxaoh3oudp" class="animable"></path><path d="M630.64,225.17c5.06-13.65,11.86-28.15,19.48-43.07l5.69-11c1.88-3.62,3.74-7.2,5.77-10.6a207.69,207.69,0,0,1,12.81-18.83c4.37-5.79,8.72-11.13,12.83-16.09s8-9.5,11.8-13.49a163.08,163.08,0,0,1,19.1-17.49c2.41-1.88,4.33-3.28,5.64-4.21l1.5-1.05a2.61,2.61,0,0,1,.53-.33,4.9,4.9,0,0,1-.48.4l-1.45,1.12c-1.28,1-3.16,2.41-5.54,4.33a172.72,172.72,0,0,0-18.87,17.65c-3.71,4-7.6,8.56-11.69,13.53s-8.41,10.32-12.75,16.11a207.27,207.27,0,0,0-12.72,18.79c-2,3.37-3.86,6.93-5.73,10.55l-5.69,11a424.15,424.15,0,0,0-19.51,43" style="fill: rgb(224, 224, 224); transform-origin: 678.215px 157.25px;" id="el7pct55eu0ny" class="animable"></path><path d="M661.82,160.47a10.08,10.08,0,0,1-.3-2c-.15-1.28-.31-3.15-.47-5.46-.32-4.61-.54-11-.76-18s-.54-13.41-.93-18c-.19-2.3-.36-4.16-.5-5.44a9.5,9.5,0,0,1-.11-2,9.07,9.07,0,0,1,.44,2c.24,1.28.5,3.13.76,5.43.55,4.59,1,11,1.18,18s.38,13.23.52,18c.08,2.17.14,4,.2,5.47A8.77,8.77,0,0,1,661.82,160.47Z" style="fill: rgb(224, 224, 224); transform-origin: 660.316px 135.02px;" id="elqo7s90bz21q" class="animable"></path><path d="M721.57,153.68a12.42,12.42,0,0,1-2.37.12c-1.52,0-3.73,0-6.45.17-5.44.19-13,.73-21.2,1.68s-15.7,2.15-21,3.17c-2.68.49-4.84.94-6.33,1.25a12.58,12.58,0,0,1-2.35.4,13.28,13.28,0,0,1,2.27-.73c1.48-.4,3.62-1,6.29-1.51,5.34-1.18,12.79-2.47,21.07-3.44a209.08,209.08,0,0,1,21.29-1.43c2.73,0,4.94,0,6.47.1A13,13,0,0,1,721.57,153.68Z" style="fill: rgb(224, 224, 224); transform-origin: 691.72px 156.915px;" id="elgst5v51ixcp" class="animable"></path><path d="M631.44,224.14a2.86,2.86,0,0,1-.35-.75l-.86-2.21c-.73-1.91-1.72-4.72-2.9-8.2-2.36-7-5.31-16.67-8.43-27.43s-6-20.5-8.19-27.49l-2.65-8.29-.7-2.25a3.4,3.4,0,0,1-.2-.81,3,3,0,0,1,.36.75l.85,2.2c.74,1.92,1.73,4.72,2.9,8.2,2.36,7,5.32,16.68,8.44,27.44s6,20.49,8.19,27.49c1.09,3.4,2,6.2,2.64,8.28l.71,2.26A3,3,0,0,1,631.44,224.14Z" style="fill: rgb(224, 224, 224); transform-origin: 619.3px 185.425px;" id="elt7ziblppvte" class="animable"></path><path d="M711.59,204.51a3.09,3.09,0,0,1-.8.27l-2.33.6-8.58,2.11c-7.25,1.79-17.23,4.38-28.26,7.25s-21,5.37-28.33,7c-3.64.82-6.6,1.45-8.65,1.85l-2.36.44a3.3,3.3,0,0,1-.84.1,3.09,3.09,0,0,1,.8-.27l2.33-.6,8.58-2.11c7.25-1.79,17.24-4.38,28.26-7.25s21.05-5.37,28.33-7c3.65-.82,6.6-1.45,8.65-1.85l2.37-.44A3.25,3.25,0,0,1,711.59,204.51Z" style="fill: rgb(224, 224, 224); transform-origin: 671.515px 214.32px;" id="elyjb31e82qbb" class="animable"></path><path d="M49,390.91c-4.62-2.39-10.06-2.7-15.18-1.85-2.76.46-5.63,1.28-7.51,3.35s-2.22,5.71-.07,7.49a7.17,7.17,0,0,0,4.73,1.2c4-.05,8.46-.76,11.67,1.66,1.83,1.38,3,3.67,5.24,4.34a5.17,5.17,0,0,0,5.69-2.53,8.85,8.85,0,0,0,.64-6.52A10,10,0,0,0,49,390.91Z" style="fill: rgb(235, 235, 235); transform-origin: 39.6589px 397.932px;" id="elxzfb2otcsp" class="animable"></path><path d="M59.54,370.48c-2.82,4-8.31,2.7-10.86.24s-3.62-6-4.6-9.44c-2.23-7.77-4.49-15.93-2.83-23.85a13.35,13.35,0,0,1,3-6.48,6.93,6.93,0,0,1,6.56-2.18c2.77.73,4.49,3.44,5.73,6a56.92,56.92,0,0,1,5.62,24.39c0,3.93-.45,8.06-2.67,11.3" style="fill: rgb(235, 235, 235); transform-origin: 51.4188px 350.834px;" id="elb58kykuhxze" class="animable"></path><path d="M67.3,376.27c-3.07-3.64-3.65-8.95-2.29-13.51s4.45-8.44,8-11.6a43.1,43.1,0,0,1,14.33-8.45,15.2,15.2,0,0,1,6.44-1.1,6.77,6.77,0,0,1,5.4,3.27c1.51,2.88.07,6.36-1.5,9.21a108.51,108.51,0,0,1-9.41,14.33c-2.82,3.63-6,7.22-10.34,8.86s-8.77,1.45-11-1.53" style="fill: rgb(235, 235, 235); transform-origin: 82.0678px 359.951px;" id="el7acnzwqddsd" class="animable"></path><path d="M59.73,431.32a8.62,8.62,0,0,1-.25-1.83c-.13-1.33-.3-3-.49-5a70,70,0,0,0-1.13-7.34,56.46,56.46,0,0,0-2.66-8.66,32.44,32.44,0,0,0-4.42-7.83A16.67,16.67,0,0,0,45.19,396a16,16,0,0,0-4.71-1.47,9.3,9.3,0,0,1-1.83-.26,8.93,8.93,0,0,1,1.86,0,14.21,14.21,0,0,1,4.91,1.28,16.54,16.54,0,0,1,5.9,4.69,31.29,31.29,0,0,1,4.58,8,53.33,53.33,0,0,1,2.65,8.8,61.87,61.87,0,0,1,1,7.43c.16,2.12.22,3.84.25,5A8.33,8.33,0,0,1,59.73,431.32Z" style="fill: rgb(224, 224, 224); transform-origin: 49.2363px 412.771px;" id="elkl3u2zsk19s" class="animable"></path><path d="M59.39,427.48a3.11,3.11,0,0,1,0-.86v-2.43c0-2.11,0-5.16-.1-8.93-.19-7.55-.84-15.66-2.09-27.11-1.19-10.76-2.79-23.29-4.47-31.43-.36-1.85-.72-3.52-1.07-5S51,349,50.74,348l-.57-2.36a4.45,4.45,0,0,1-.15-.84,3,3,0,0,1,.3.79c.18.62.42,1.39.7,2.33s.64,2.27,1,3.72.78,3.12,1.17,5a275.45,275.45,0,0,1,4.7,29.16c1.25,11.47,1.82,21.91,1.87,29.48,0,3.78,0,6.84-.13,8.95-.06,1-.11,1.79-.15,2.43A4.09,4.09,0,0,1,59.39,427.48Z" style="fill: rgb(224, 224, 224); transform-origin: 54.89px 386.14px;" id="el8bhc2xl9lqe" class="animable"></path><path d="M59.34,407.33a14.53,14.53,0,0,1,0-2.54c.1-1.63.32-4,.78-6.88a91.56,91.56,0,0,1,2.24-10A81.56,81.56,0,0,1,66.56,376a63.33,63.33,0,0,1,12.32-19.18,29.92,29.92,0,0,1,2.9-2.69c.44-.38.83-.75,1.23-1l1.13-.77A14.53,14.53,0,0,1,86.28,351c.12.16-3,2-7,6.25a66.59,66.59,0,0,0-12,19.11A92.73,92.73,0,0,0,63,388.07,102.08,102.08,0,0,0,60.66,398c-.53,2.86-.83,5.2-1,6.82A16.28,16.28,0,0,1,59.34,407.33Z" style="fill: rgb(224, 224, 224); transform-origin: 72.7839px 379.165px;" id="elfz25y8pnx5s" class="animable"></path><polygon points="78.8 442.86 76.79 470.51 41.27 470.51 39.25 442.86 78.8 442.86" style="fill: rgb(224, 224, 224); transform-origin: 59.025px 456.685px;" id="eleqndai78w84" class="animable"></polygon><rect x="35.01" y="431.96" width="47.23" height="10.9" style="fill: rgb(224, 224, 224); transform-origin: 58.625px 437.41px;" id="el1w3m5risu9m" class="animable"></rect><polygon points="82.23 469.45 82.23 472.48 80.02 472.48 35.79 472.48 35.79 469.45 82.23 469.45" style="fill: rgb(235, 235, 235); transform-origin: 59.01px 470.965px;" id="elpa5a5knf1wd" class="animable"></polygon><polygon points="77.84 477.79 80.02 472.48 37.48 472.48 40.02 477.79 77.84 477.79" style="fill: rgb(224, 224, 224); transform-origin: 58.75px 475.135px;" id="el2gumeufl9n9" class="animable"></polygon><path d="M39.91,451.9s0,.09.16.25l.53.71c.51.64,1.2,1.53,2.07,2.65l.09.11.09-.12,5.09-7h-.3c1.52,2.14,3.2,4.53,5,7.09l.16.22.17-.21,5.94-7.06h-.34l.32.41,5.31,6.66.18.22.16-.23,5-7.09-.29,0,6.16,7,.11.13.09-.14,1.93-3.25.49-.86a1.2,1.2,0,0,0,.15-.31,1.57,1.57,0,0,0-.2.27l-.55.84-2,3.18h.19l-6.06-7.12-.16-.18-.13.2-5.06,7.05h.34l-5.29-6.66-.33-.41-.17-.21-.17.2-5.92,7.08H53l-5.05-7.05-.15-.21-.15.21-5,7.11h.18c-.91-1.08-1.63-1.95-2.15-2.58l-.58-.67Z" style="fill: rgb(245, 245, 245); transform-origin: 59.045px 451.935px;" id="elbrmy156bpjk" class="animable"></path><path d="M38.75,442.68c0,.12,8.9.22,19.88.22s19.88-.1,19.88-.22-8.9-.22-19.88-.22S38.75,442.56,38.75,442.68Z" style="fill: rgb(245, 245, 245); transform-origin: 58.63px 442.68px;" id="elfk1enr48mfc" class="animable"></path><path d="M37,472.77c0,.13,9.67.22,21.6.22s21.6-.09,21.6-.22-9.67-.22-21.6-.22S37,472.65,37,472.77Z" style="fill: rgb(245, 245, 245); transform-origin: 58.6px 472.77px;" id="eljbd4kpd3jdh" class="animable"></path><rect x="220.53" y="388.02" width="124.58" height="36.8" style="fill: rgb(255, 255, 255); transform-origin: 282.82px 406.42px;" id="ellvyvoz0a3e" class="animable"></rect><path d="M345.61,425.32H220v-37.8H345.61Zm-124.58-1H344.61v-35.8H221Z" style="fill: rgb(224, 224, 224); transform-origin: 282.805px 406.42px;" id="eliue6y048jza" class="animable"></path><circle cx="239.89" cy="407.23" r="11.37" style="fill: rgb(235, 235, 235); transform-origin: 239.89px 407.23px;" id="elobhd20d9dlc" class="animable"></circle><path d="M240.81,407.39a2.6,2.6,0,0,0,1.55-2.4,2.45,2.45,0,1,0-4.88,0,2.59,2.59,0,0,0,1.55,2.43c-3.75.57-3.58,4.65-3.58,4.65l8.88,0S244.53,408,240.81,407.39Z" style="fill: rgb(255, 255, 255); transform-origin: 239.89px 407.194px;" id="elc9a44q03fnk" class="animable"></path><path d="M330.79,406.76c0,.15-16.05.26-35.83.26s-35.84-.11-35.84-.26,16-.26,35.84-.26S330.79,406.62,330.79,406.76Z" style="fill: rgb(224, 224, 224); transform-origin: 294.955px 406.76px;" id="elpqe6e9uh0ba" class="animable"></path><rect x="316.85" y="350.83" width="124.58" height="36.8" style="fill: rgb(255, 255, 255); transform-origin: 379.14px 369.23px;" id="elfl2hn4mrp07" class="animable"></rect><path d="M441.93,388.13H316.35v-37.8H441.93Zm-124.58-1H440.93v-35.8H317.35Z" style="fill: rgb(224, 224, 224); transform-origin: 379.14px 369.23px;" id="elnwh6h0vnnsd" class="animable"></path><circle cx="336.2" cy="370.04" r="11.37" style="fill: rgb(235, 235, 235); transform-origin: 336.2px 370.04px;" id="eltyo3qi2h1h" class="animable"></circle><path d="M337.12,370.2a2.59,2.59,0,0,0,1.55-2.4,2.45,2.45,0,1,0-4.88,0,2.6,2.6,0,0,0,1.56,2.43c-3.76.57-3.59,4.65-3.59,4.65l8.88,0S340.84,370.77,337.12,370.2Z" style="fill: rgb(255, 255, 255); transform-origin: 336.2px 370.004px;" id="eln20pu62t18b" class="animable"></path><path d="M427.1,369.57c0,.15-16,.26-35.83.26s-35.84-.11-35.84-.26,16-.26,35.84-.26S427.1,369.43,427.1,369.57Z" style="fill: rgb(224, 224, 224); transform-origin: 391.265px 369.57px;" id="elbo3k3jtam1u" class="animable"></path><path d="M481.8,414.67l-1.69,31.19a2.11,2.11,0,0,1-2.09,2l-56.11.41a2.11,2.11,0,0,1-2.12-2.09l-.18-24.27a2.1,2.1,0,0,1,2.1-2.12l34.51,0a2.11,2.11,0,0,0,1.49-.61l6-5.95a2.13,2.13,0,0,1,1.48-.62l14.55-.11A2.11,2.11,0,0,1,481.8,414.67Z" style="fill: rgb(253, 74, 74); transform-origin: 450.705px 430.385px;" id="elg1is2ylfwg5" class="animable"></path><g id="elmh9co0wvxx"><g style="opacity: 0.3; transform-origin: 450.705px 430.385px;" class="animable"><path d="M481.8,414.67l-1.69,31.19a2.11,2.11,0,0,1-2.09,2l-56.11.41a2.11,2.11,0,0,1-2.12-2.09l-.18-24.27a2.1,2.1,0,0,1,2.1-2.12l34.51,0a2.11,2.11,0,0,0,1.49-.61l6-5.95a2.13,2.13,0,0,1,1.48-.62l14.55-.11A2.11,2.11,0,0,1,481.8,414.67Z" id="elmprx0wpho2" class="animable" style="transform-origin: 450.705px 430.385px;"></path></g></g><g id="elkngqa0np7k"><rect x="419.7" y="415.88" width="61.31" height="36.64" style="fill: rgb(245, 245, 245); transform-origin: 450.355px 434.2px; transform: rotate(179.58deg);" class="animable"></rect></g><path d="M485.78,418.91l-4.4,38.24a1.36,1.36,0,0,1-1.34,1.2l-59.75.43a1.35,1.35,0,0,1-1.36-1.23l-3.28-38.18A1.35,1.35,0,0,1,417,417.9l67.43-.5A1.36,1.36,0,0,1,485.78,418.91Z" style="fill: rgb(250, 250, 250); transform-origin: 450.716px 438.09px;" id="eleofuq6trq9" class="animable"></path><path d="M498.31,408.79,496.62,440a2.1,2.1,0,0,1-2.09,2l-56.11.42a2.11,2.11,0,0,1-2.12-2.09L436.12,416a2.1,2.1,0,0,1,2.1-2.12l34.51,0a2.13,2.13,0,0,0,1.49-.61l5.95-6a2.09,2.09,0,0,1,1.48-.61l14.54-.11A2.1,2.1,0,0,1,498.31,408.79Z" style="fill: rgb(224, 224, 224); transform-origin: 467.217px 424.485px;" id="elun6yet5w5u" class="animable"></path><g id="eljvkg7ox3y5"><rect x="436.21" y="410" width="61.31" height="36.64" style="fill: rgb(245, 245, 245); transform-origin: 466.865px 428.32px; transform: rotate(179.58deg);" class="animable"></rect></g><path d="M502.29,413l-4.4,38.24a1.36,1.36,0,0,1-1.34,1.19l-59.75.44a1.35,1.35,0,0,1-1.36-1.24l-3.29-38.18a1.36,1.36,0,0,1,1.34-1.47l67.44-.49A1.36,1.36,0,0,1,502.29,413Z" style="fill: rgb(224, 224, 224); transform-origin: 467.222px 432.18px;" id="el0t3wm178wa9c" class="animable"></path><path d="M516.92,416.09l-1.7,31.19a2.1,2.1,0,0,1-2.09,2l-56.11.41a2.11,2.11,0,0,1-2.12-2.09l-.18-24.27a2.13,2.13,0,0,1,2.11-2.13l34.51,0a2.11,2.11,0,0,0,1.48-.61l6-5.95a2.05,2.05,0,0,1,1.47-.62l14.55-.11A2.11,2.11,0,0,1,516.92,416.09Z" style="fill: rgb(245, 245, 245); transform-origin: 485.821px 431.8px;" id="elunv10ebs8b" class="animable"></path><g id="elk1qmg7ya22f"><rect x="454.81" y="417.3" width="61.31" height="36.64" style="fill: rgb(245, 245, 245); transform-origin: 485.465px 435.62px; transform: rotate(179.58deg);" class="animable"></rect></g><path d="M520.89,420.33l-4.4,38.24a1.36,1.36,0,0,1-1.33,1.2l-59.75.43a1.34,1.34,0,0,1-1.36-1.23l-3.29-38.19a1.36,1.36,0,0,1,1.34-1.47l67.44-.49A1.35,1.35,0,0,1,520.89,420.33Z" style="fill: rgb(245, 245, 245); transform-origin: 485.828px 439.51px;" id="eldaokwu47mwi" class="animable"></path><path d="M450.75,425.53v53h76.52v-53Zm25,9.54a3.92,3.92,0,0,1,3.92-3.91h18.73a3.92,3.92,0,1,1,0,7.83H479.65A3.93,3.93,0,0,1,475.73,435.07Z" style="fill: rgb(235, 235, 235); transform-origin: 489.01px 452.03px;" id="el6uec556l1u" class="animable"></path><path d="M409.5,425.53v53h41.25v-53Z" style="fill: rgb(224, 224, 224); transform-origin: 430.125px 452.03px;" id="elp2gpxheru7j" class="animable"></path></g><g id="freepik--Window--inject-17" class="animable" style="transform-origin: 408.23px 184.995px;"><polygon points="647.39 320.69 168.07 320.69 169.04 49.04 648.36 49.04 647.39 320.69" style="fill: rgb(255, 255, 255); transform-origin: 408.215px 184.865px;" id="eliigozn042m8" class="animable"></polygon><ellipse cx="177.36" cy="56.24" rx="2.24" ry="2.21" style="fill: rgb(38, 50, 56); transform-origin: 177.36px 56.24px;" id="elcp24s3nrm69" class="animable"></ellipse><ellipse cx="186.56" cy="56.24" rx="2.24" ry="2.21" style="fill: rgb(38, 50, 56); transform-origin: 186.56px 56.24px;" id="eld8pgblouhig" class="animable"></ellipse><rect x="236.66" y="67.33" width="44.11" height="23.83" style="fill: rgb(253, 74, 74); transform-origin: 258.715px 79.245px;" id="elamch5dfdbtl" class="animable"></rect><ellipse cx="195.77" cy="56.24" rx="2.24" ry="2.21" style="fill: rgb(38, 50, 56); transform-origin: 195.77px 56.24px;" id="elew1og9fb26j" class="animable"></ellipse><path d="M647.39,67.32c0,.15-107.11.27-239.2.27S169,67.47,169,67.32s107.08-.26,239.21-.26S647.39,67.18,647.39,67.32Z" style="fill: rgb(38, 50, 56); transform-origin: 408.195px 67.325px;" id="el0gma499o470o" class="animable"></path><rect x="168.07" y="88.2" width="34.23" height="232.82" style="fill: rgb(245, 245, 245); transform-origin: 185.185px 204.61px;" id="el0ail953me3o" class="animable"></rect><rect x="201.61" y="87.86" width="35.05" height="232.82" style="fill: rgb(235, 235, 235); transform-origin: 219.135px 204.27px;" id="elea4czfka7z" class="animable"></rect><rect x="236.66" y="87.86" width="34.23" height="232.82" style="fill: rgb(245, 245, 245); transform-origin: 253.775px 204.27px;" id="elvmmrh67padj" class="animable"></rect><rect x="270.2" y="87.86" width="35.05" height="232.82" style="fill: rgb(235, 235, 235); transform-origin: 287.725px 204.27px;" id="eldk2eee7g7aw" class="animable"></rect><rect x="305.25" y="87.86" width="34.23" height="232.82" style="fill: rgb(245, 245, 245); transform-origin: 322.365px 204.27px;" id="el9jytjf0zsp" class="animable"></rect><rect x="338.79" y="87.86" width="35.05" height="232.82" style="fill: rgb(235, 235, 235); transform-origin: 356.315px 204.27px;" id="el28ozdy105ko" class="animable"></rect><rect x="373.84" y="87.86" width="34.23" height="232.82" style="fill: rgb(245, 245, 245); transform-origin: 390.955px 204.27px;" id="el0xyywy8d521" class="animable"></rect><rect x="407.38" y="87.86" width="35.05" height="232.82" style="fill: rgb(235, 235, 235); transform-origin: 424.905px 204.27px;" id="eldk2t4b3hxuu" class="animable"></rect><rect x="442.43" y="87.86" width="34.23" height="232.82" style="fill: rgb(245, 245, 245); transform-origin: 459.545px 204.27px;" id="ele1ut0zybi1m" class="animable"></rect><rect x="475.98" y="87.86" width="35.05" height="232.82" style="fill: rgb(235, 235, 235); transform-origin: 493.505px 204.27px;" id="el1eb7qzylk7s" class="animable"></rect><rect x="511.02" y="87.86" width="34.23" height="232.82" style="fill: rgb(245, 245, 245); transform-origin: 528.135px 204.27px;" id="elsfd1swy8szm" class="animable"></rect><rect x="544.57" y="87.86" width="35.05" height="232.82" style="fill: rgb(235, 235, 235); transform-origin: 562.095px 204.27px;" id="el07eqkz1fl8ah" class="animable"></rect><rect x="579.62" y="87.86" width="34.23" height="232.82" style="fill: rgb(245, 245, 245); transform-origin: 596.735px 204.27px;" id="elm6mkn5x6xnc" class="animable"></rect><rect x="613.16" y="87.86" width="34.23" height="232.82" style="fill: rgb(235, 235, 235); transform-origin: 630.275px 204.27px;" id="ellnneublu1eh" class="animable"></rect><path d="M242,320c-.14,0-.26-52-.26-116.06s.12-116.07.26-116.07.26,52,.26,116.07S242.19,320,242,320Z" style="fill: rgb(253, 74, 74); transform-origin: 242px 203.935px;" id="elqdokxbewrf9" class="animable"></path><rect x="187" y="121.43" width="99.32" height="29.11" style="fill: rgb(253, 74, 74); transform-origin: 236.66px 135.985px;" id="el8eklp60hc12" class="animable"></rect><ellipse cx="202.57" cy="136.62" rx="9.15" ry="8.99" style="fill: rgb(255, 255, 255); transform-origin: 202.57px 136.62px;" id="elmmtl2nheloj" class="animable"></ellipse><path d="M203.31,136.75a2,2,0,0,0,1.25-1.9,2,2,0,1,0-3.93,0,2.06,2.06,0,0,0,1.25,1.92c-3,.45-2.88,3.68-2.88,3.68l7.15,0S206.31,137.2,203.31,136.75Z" style="fill: rgb(253, 74, 74); transform-origin: 202.575px 136.464px;" id="elqudelq4z94" class="animable"></path><path d="M274.66,136.25c0,.15-12.67.27-28.3.27s-28.31-.12-28.31-.27,12.67-.26,28.31-.26S274.66,136.11,274.66,136.25Z" style="fill: rgb(255, 255, 255); transform-origin: 246.355px 136.255px;" id="elqsnjl5k6l39" class="animable"></path><path d="M488.19,241.44H468.33c-20.27,0-36.76-16.21-36.76-36.14V168.76c0-19.38-16-35.14-35.75-35.14l-109.5.54v-1l109.49-.54c20.27,0,36.76,16.21,36.76,36.14V205.3c0,19.38,16,35.14,35.76,35.14h19.86Z" style="fill: rgb(253, 74, 74); transform-origin: 387.255px 187.03px;" id="elbzhzlo7ngi" class="animable"></path><rect x="475.4" y="228.18" width="76.48" height="29.11" style="fill: rgb(255, 255, 255); transform-origin: 513.64px 242.735px;" id="elaxzk16qapem" class="animable"></rect><path d="M552.39,257.79H474.9V227.68h77.49Zm-76.49-1h75.49V228.68H475.9Z" style="fill: rgb(253, 74, 74); transform-origin: 513.645px 242.735px;" id="elyem9wpspse" class="animable"></path><ellipse cx="490.98" cy="243.38" rx="9.15" ry="8.99" style="fill: rgb(253, 74, 74); transform-origin: 490.98px 243.38px;" id="el172ri79938n" class="animable"></ellipse><path d="M491.72,243.51A2.07,2.07,0,0,0,493,241.6a2,2,0,1,0-3.93,0,2.07,2.07,0,0,0,1.25,1.93c-3,.44-2.88,3.67-2.88,3.67l7.14,0S494.72,244,491.72,243.51Z" style="fill: rgb(255, 255, 255); transform-origin: 491.01px 243.214px;" id="ela2hae70faz" class="animable"></path><path d="M532.68,243a4.35,4.35,0,0,1-1,.1c-.67,0-1.63.06-2.81.08-2.37.05-5.65.08-9.27.08s-6.9,0-9.27-.08c-1.19,0-2.15-.05-2.81-.08a4.25,4.25,0,0,1-1-.1,3.69,3.69,0,0,1,1-.1l2.81-.09c2.37,0,5.65-.07,9.27-.07s6.9,0,9.27.07l2.81.09A3.77,3.77,0,0,1,532.68,243Z" style="fill: rgb(253, 74, 74); transform-origin: 519.6px 243px;" id="el4e4yf0cnhum" class="animable"></path><g id="elmvfetnc2m7"><rect x="552.28" y="198.46" width="64.94" height="29.11" style="fill: rgb(255, 255, 255); transform-origin: 584.75px 213.015px; transform: rotate(0.19deg);" class="animable"></rect></g><path d="M617.67,228.18,551.73,228l.11-30.11,65.93.22ZM552.73,227l63.94.21.1-28.11-63.94-.21Z" style="fill: rgb(38, 50, 56); transform-origin: 584.75px 213.035px;" id="elld8ugm1kkwq" class="animable"></path><path d="M576.44,213.63a8.94,8.94,0,1,1-8.91-9A9,9,0,0,1,576.44,213.63Z" style="fill: rgb(38, 50, 56); transform-origin: 567.5px 213.57px;" id="els950za9ddgi" class="animable"></path><path d="M568.22,213.73a2.06,2.06,0,0,0,1.23-1.9,1.92,1.92,0,1,0-3.84,0,2.06,2.06,0,0,0,1.22,1.93c-3,.44-2.84,3.67-2.84,3.67l7,0S571.15,214.19,568.22,213.73Z" style="fill: rgb(255, 255, 255); transform-origin: 567.49px 213.67px;" id="el8cr2w9xnjro" class="animable"></path><path d="M610,213.39a4.07,4.07,0,0,1-1.08.1c-.69,0-1.69,0-2.93.07-2.48,0-5.9.06-9.68,0s-7.21-.06-9.69-.12l-2.93-.09a3.84,3.84,0,0,1-1.08-.11,4.62,4.62,0,0,1,1.08-.09c.69,0,1.7-.06,2.94-.08,2.47,0,5.9-.05,9.68,0s7.2.06,9.68.12c1.24,0,2.24.06,2.93.09A4.68,4.68,0,0,1,610,213.39Z" style="fill: rgb(38, 50, 56); transform-origin: 596.305px 213.317px;" id="elj2unoiwxki" class="animable"></path><rect x="286.42" y="170.69" width="112.29" height="29.11" style="fill: rgb(255, 255, 255); transform-origin: 342.565px 185.245px;" id="elrx3221i6f9k" class="animable"></rect><path d="M399.21,200.3H285.92V170.19H399.21Zm-112.29-1H398.21V171.19H286.92Z" style="fill: rgb(69, 90, 100); transform-origin: 342.565px 185.245px;" id="el53hmovpsat" class="animable"></path><path d="M386.15,185.52c0,.14-13.76.26-30.73.26s-30.72-.12-30.72-.26,13.75-.26,30.72-.26S386.15,185.38,386.15,185.52Z" style="fill: rgb(69, 90, 100); transform-origin: 355.425px 185.52px;" id="elmrweq2c5s6k" class="animable"></path><ellipse cx="303.66" cy="185.52" rx="9.15" ry="8.99" style="fill: rgb(69, 90, 100); transform-origin: 303.66px 185.52px;" id="el4975uue7a1f" class="animable"></ellipse><path d="M304.4,185.65a2.07,2.07,0,0,0,1.25-1.9,2,2,0,1,0-3.93,0,2,2,0,0,0,1.25,1.92c-3,.45-2.89,3.68-2.89,3.68l7.15,0S307.39,186.1,304.4,185.65Z" style="fill: rgb(255, 255, 255); transform-origin: 303.655px 185.364px;" id="el7d43u0y6l4r" class="animable"></path><rect x="375.25" y="200.42" width="99.32" height="29.11" style="fill: rgb(255, 255, 255); transform-origin: 424.91px 214.975px;" id="ellyl3yqjyqfm" class="animable"></rect><path d="M475.07,230H374.75V199.92H475.07Zm-99.32-1h98.32V200.92H375.75Z" style="fill: rgb(38, 50, 56); transform-origin: 424.91px 214.96px;" id="ele448aex7k3k" class="animable"></path><ellipse cx="390.82" cy="215.62" rx="9.15" ry="8.99" style="fill: rgb(38, 50, 56); transform-origin: 390.82px 215.62px;" id="elbmieolo6hqv" class="animable"></ellipse><path d="M391.56,215.75a2.05,2.05,0,0,0,1.25-1.9,2,2,0,1,0-3.93,0,2.07,2.07,0,0,0,1.25,1.92c-3,.45-2.88,3.68-2.88,3.68l7.15,0S394.56,216.2,391.56,215.75Z" style="fill: rgb(255, 255, 255); transform-origin: 390.825px 215.464px;" id="elfvsbuo1thjv" class="animable"></path><path d="M462.91,215.25c0,.15-12.67.26-28.3.26s-28.31-.11-28.31-.26S419,215,434.61,215,462.91,215.11,462.91,215.25Z" style="fill: rgb(38, 50, 56); transform-origin: 434.605px 215.255px;" id="el619rzyjcx5y" class="animable"></path><path d="M198.16,84v.77h-5.88v-.61l3.49-3.42c.94-.94,1.12-1.5,1.12-2.08,0-1-.68-1.57-2-1.57a2.83,2.83,0,0,0-2.29.94l-.62-.53a3.77,3.77,0,0,1,3-1.2c1.7,0,2.78.86,2.78,2.27a3.44,3.44,0,0,1-1.38,2.62L193.55,84Z" id="eljknddafbd6c" class="animable" style="transform-origin: 195.07px 80.5313px;"></path><path d="M199.2,80.56c0-2.67,1.4-4.27,3.35-4.27s3.35,1.6,3.35,4.27-1.41,4.27-3.35,4.27S199.2,83.23,199.2,80.56Zm5.82,0c0-2.24-1-3.48-2.47-3.48s-2.48,1.24-2.48,3.48,1,3.48,2.48,3.48S205,82.8,205,80.56Z" id="elz942kisy0s" class="animable" style="transform-origin: 202.55px 80.56px;"></path><path d="M209.45,76.36v8.4h-.87V77.13h-2v-.77Z" id="el40u8svlxgf" class="animable" style="transform-origin: 208.015px 80.56px;"></path><path d="M217,82.35c0,1.4-1,2.48-3,2.48a4.35,4.35,0,0,1-3-1.08l.42-.68a3.67,3.67,0,0,0,2.6,1c1.39,0,2.16-.65,2.16-1.69s-.71-1.67-2.27-1.67h-.6V80l2.33-2.91h-4.3v-.77h5.4V77l-2.37,3C216.1,80.06,217,81,217,82.35Z" id="elpcgb80nf0rb" class="animable" style="transform-origin: 214px 80.576px;"></path><path d="M252.73,84v.77h-5.88v-.61l3.49-3.42c.94-.94,1.12-1.5,1.12-2.08,0-1-.68-1.57-2-1.57a2.83,2.83,0,0,0-2.29.94l-.62-.53a3.77,3.77,0,0,1,3-1.2c1.7,0,2.78.86,2.78,2.27A3.44,3.44,0,0,1,251,81.18L248.12,84Z" style="fill: rgb(255, 255, 255); transform-origin: 249.64px 80.5313px;" id="elukm1hgnsf6h" class="animable"></path><path d="M253.77,80.56c0-2.67,1.4-4.27,3.35-4.27s3.35,1.6,3.35,4.27-1.41,4.27-3.35,4.27S253.77,83.23,253.77,80.56Zm5.82,0c0-2.24-1-3.48-2.47-3.48s-2.47,1.24-2.47,3.48,1,3.48,2.47,3.48S259.59,82.8,259.59,80.56Z" style="fill: rgb(255, 255, 255); transform-origin: 257.12px 80.56px;" id="elhd5o0zv4r3b" class="animable"></path><path d="M264,76.36v8.4h-.87V77.13h-2v-.77Z" style="fill: rgb(255, 255, 255); transform-origin: 262.565px 80.56px;" id="elpc63czxknp" class="animable"></path><path d="M273.16,82.55h-1.68v2.21h-.87V82.55h-4.73v-.62l4.45-5.57h1L267,81.78h3.65V79.84h.84v1.94h1.68Z" style="fill: rgb(255, 255, 255); transform-origin: 269.525px 80.56px;" id="elrtkr1h0uff" class="animable"></path><path d="M308.24,84v.77h-5.89v-.61l3.49-3.42c1-.94,1.13-1.5,1.13-2.08,0-1-.69-1.57-2-1.57a2.84,2.84,0,0,0-2.29.94l-.61-.53a3.75,3.75,0,0,1,3-1.2c1.7,0,2.78.86,2.78,2.27a3.44,3.44,0,0,1-1.38,2.62L303.62,84Z" id="el9pr5vy7bbkb" class="animable" style="transform-origin: 305.155px 80.5311px;"></path><path d="M309.27,80.56c0-2.67,1.41-4.27,3.35-4.27s3.36,1.6,3.36,4.27-1.42,4.27-3.36,4.27S309.27,83.23,309.27,80.56Zm5.82,0c0-2.24-1-3.48-2.47-3.48s-2.47,1.24-2.47,3.48,1,3.48,2.47,3.48S315.09,82.8,315.09,80.56Z" id="elmfxm9pe3qp7" class="animable" style="transform-origin: 312.625px 80.56px;"></path><path d="M319.52,76.36v8.4h-.86V77.13h-2v-.77Z" id="elve845iccr9" class="animable" style="transform-origin: 318.09px 80.56px;"></path><path d="M327.22,82.29c0,1.42-1,2.54-3.05,2.54a4.34,4.34,0,0,1-3-1.08l.42-.68a3.66,3.66,0,0,0,2.58,1c1.43,0,2.18-.7,2.18-1.72s-.67-1.75-2.8-1.75h-1.79l.43-4.21h4.6v.77h-3.84l-.29,2.67h1.08C326.26,79.8,327.22,80.8,327.22,82.29Z" id="el73tx8tmys86" class="animable" style="transform-origin: 324.195px 80.611px;"></path><path d="M363.27,84v.77h-5.89v-.61l3.49-3.42c.95-.94,1.13-1.5,1.13-2.08,0-1-.68-1.57-2-1.57a2.85,2.85,0,0,0-2.29.94l-.61-.53a3.77,3.77,0,0,1,3-1.2c1.7,0,2.78.86,2.78,2.27a3.44,3.44,0,0,1-1.38,2.62L358.66,84Z" id="elz87flaqaocq" class="animable" style="transform-origin: 360.185px 80.5313px;"></path><path d="M364.31,80.56c0-2.67,1.4-4.27,3.34-4.27s3.36,1.6,3.36,4.27-1.41,4.27-3.36,4.27S364.31,83.23,364.31,80.56Zm5.82,0c0-2.24-1-3.48-2.48-3.48s-2.47,1.24-2.47,3.48,1,3.48,2.47,3.48S370.13,82.8,370.13,80.56Z" id="el4hjghw4dgwp" class="animable" style="transform-origin: 367.66px 80.56px;"></path><path d="M374.55,76.36v8.4h-.86V77.13h-2v-.77Z" id="eltxq5kyhm6yc" class="animable" style="transform-origin: 373.12px 80.56px;"></path><path d="M382.87,82.25A2.62,2.62,0,0,1,380,84.83c-2.23,0-3.44-1.55-3.44-4.2,0-2.85,1.56-4.34,3.84-4.34a3.81,3.81,0,0,1,2,.46l-.35.69a2.92,2.92,0,0,0-1.63-.39c-1.81,0-3,1.16-3,3.44,0,.19,0,.43,0,.68A2.69,2.69,0,0,1,380,79.73,2.54,2.54,0,0,1,382.87,82.25Zm-.85,0c0-1.11-.82-1.82-2.11-1.82a2,2,0,0,0-2.16,1.84c0,.92.77,1.8,2.22,1.8A1.84,1.84,0,0,0,382,82.28Z" id="eliviyjknczg9" class="animable" style="transform-origin: 379.715px 80.5639px;"></path><path d="M418.31,84v.77h-5.89v-.61l3.49-3.42c.95-.94,1.13-1.5,1.13-2.08,0-1-.69-1.57-2-1.57a2.84,2.84,0,0,0-2.29.94l-.61-.53a3.76,3.76,0,0,1,3-1.2c1.71,0,2.79.86,2.79,2.27a3.47,3.47,0,0,1-1.38,2.62L413.69,84Z" id="el07icn4rik8c9" class="animable" style="transform-origin: 415.225px 80.5312px;"></path><path d="M419.34,80.56c0-2.67,1.41-4.27,3.35-4.27s3.36,1.6,3.36,4.27-1.42,4.27-3.36,4.27S419.34,83.23,419.34,80.56Zm5.82,0c0-2.24-1-3.48-2.47-3.48s-2.47,1.24-2.47,3.48,1,3.48,2.47,3.48S425.16,82.8,425.16,80.56Z" id="el1x2ho2whplf" class="animable" style="transform-origin: 422.695px 80.56px;"></path><path d="M429.59,76.36v8.4h-.86V77.13h-2v-.77Z" id="el2zugv17htmb" class="animable" style="transform-origin: 428.16px 80.56px;"></path><path d="M437.52,76.36V77L434,84.76h-.94l3.46-7.63h-4.32V78.7h-.85V76.36Z" id="elweeacr6qhjf" class="animable" style="transform-origin: 434.435px 80.56px;"></path><path d="M473.35,84v.77h-5.89v-.61L471,80.73c.94-.94,1.12-1.5,1.12-2.08,0-1-.68-1.57-2-1.57a2.83,2.83,0,0,0-2.29.94l-.62-.53a3.79,3.79,0,0,1,3-1.2c1.7,0,2.78.86,2.78,2.27a3.44,3.44,0,0,1-1.38,2.62L468.73,84Z" id="elyspsc1dh74l" class="animable" style="transform-origin: 470.28px 80.5266px;"></path><path d="M474.38,80.56c0-2.67,1.4-4.27,3.35-4.27s3.36,1.6,3.36,4.27-1.42,4.27-3.36,4.27S474.38,83.23,474.38,80.56Zm5.82,0c0-2.24-1-3.48-2.47-3.48s-2.47,1.24-2.47,3.48,1,3.48,2.47,3.48S480.2,82.8,480.2,80.56Z" id="elb13u4wwp3li" class="animable" style="transform-origin: 477.735px 80.56px;"></path><path d="M484.63,76.36v8.4h-.87V77.13h-2v-.77Z" id="elfb292jtrr6k" class="animable" style="transform-origin: 483.195px 80.56px;"></path><path d="M493.08,82.42c0,1.49-1.25,2.41-3.26,2.41s-3.24-.92-3.24-2.41a2.09,2.09,0,0,1,1.62-2.06,1.91,1.91,0,0,1-1.32-1.85c0-1.37,1.17-2.22,2.94-2.22s3,.85,3,2.22a1.9,1.9,0,0,1-1.34,1.85A2.09,2.09,0,0,1,493.08,82.42Zm-.88,0c0-1-.89-1.68-2.38-1.68s-2.36.65-2.36,1.68.88,1.69,2.36,1.69S492.2,83.45,492.2,82.41ZM489.82,80c1.31,0,2.09-.58,2.09-1.49S491.08,77,489.82,77s-2.07.58-2.07,1.51S488.52,80,489.82,80Z" id="elenh7hk9hskb" class="animable" style="transform-origin: 489.83px 80.56px;"></path><path d="M528.38,84v.77h-5.89v-.61L526,80.73c.95-.94,1.13-1.5,1.13-2.08,0-1-.68-1.57-2-1.57a2.84,2.84,0,0,0-2.29.94l-.61-.53a3.77,3.77,0,0,1,3-1.2c1.7,0,2.78.86,2.78,2.27a3.44,3.44,0,0,1-1.38,2.62L523.76,84Z" id="eldvopvwfa6so" class="animable" style="transform-origin: 525.305px 80.5263px;"></path><path d="M529.42,80.56c0-2.67,1.4-4.27,3.34-4.27s3.36,1.6,3.36,4.27-1.41,4.27-3.36,4.27S529.42,83.23,529.42,80.56Zm5.81,0c0-2.24-1-3.48-2.47-3.48s-2.47,1.24-2.47,3.48,1,3.48,2.47,3.48S535.23,82.8,535.23,80.56Z" id="elzhuza0992z" class="animable" style="transform-origin: 532.77px 80.56px;"></path><path d="M539.66,76.36v8.4h-.86V77.13h-2v-.77Z" id="elmmaiiswic1n" class="animable" style="transform-origin: 538.23px 80.56px;"></path><path d="M547.73,80.49c0,2.85-1.56,4.34-3.84,4.34a3.76,3.76,0,0,1-2-.46l.34-.69a3,3,0,0,0,1.64.39c1.81,0,3-1.16,3-3.44a5.83,5.83,0,0,0,0-.68,2.68,2.68,0,0,1-2.56,1.44,2.54,2.54,0,0,1-2.83-2.52,2.61,2.61,0,0,1,2.86-2.58C546.51,76.29,547.73,77.84,547.73,80.49Zm-1.19-1.67c0-.92-.77-1.8-2.22-1.8a1.84,1.84,0,0,0-2.05,1.83c0,1.1.81,1.81,2.11,1.81A2,2,0,0,0,546.54,78.82Z" id="elhz92xncfca" class="animable" style="transform-origin: 544.605px 80.5564px;"></path><path d="M583.42,84v.77h-5.89v-.61L581,80.73c1-.94,1.13-1.5,1.13-2.08,0-1-.69-1.57-2-1.57a2.84,2.84,0,0,0-2.29.94l-.61-.53a3.76,3.76,0,0,1,3-1.2c1.7,0,2.78.86,2.78,2.27a3.44,3.44,0,0,1-1.38,2.62L578.8,84Z" id="elass6t6lwr5p" class="animable" style="transform-origin: 580.325px 80.5262px;"></path><path d="M584.45,80.56c0-2.67,1.41-4.27,3.35-4.27s3.36,1.6,3.36,4.27-1.42,4.27-3.36,4.27S584.45,83.23,584.45,80.56Zm5.82,0c0-2.24-1-3.48-2.47-3.48s-2.47,1.24-2.47,3.48,1,3.48,2.47,3.48S590.27,82.8,590.27,80.56Z" id="elm443u6zp53p" class="animable" style="transform-origin: 587.805px 80.56px;"></path><path d="M598.11,84v.77h-5.89v-.61l3.49-3.42c.94-.94,1.12-1.5,1.12-2.08,0-1-.68-1.57-2-1.57a2.83,2.83,0,0,0-2.29.94l-.61-.53a3.75,3.75,0,0,1,3-1.2c1.7,0,2.78.86,2.78,2.27a3.44,3.44,0,0,1-1.38,2.62L593.49,84Z" id="el75efmlpv0ob" class="animable" style="transform-origin: 595.02px 80.5311px;"></path><path d="M599.14,80.56c0-2.67,1.4-4.27,3.35-4.27s3.36,1.6,3.36,4.27-1.42,4.27-3.36,4.27S599.14,83.23,599.14,80.56Zm5.82,0c0-2.24-1-3.48-2.47-3.48S600,78.32,600,80.56,601,84,602.49,84,605,82.8,605,80.56Z" id="elooi0593x2m" class="animable" style="transform-origin: 602.495px 80.56px;"></path><path d="M647.39,321c0-1.6.29-104.92.77-272l.2.2-479.29.06h0l.26-.26c-.35,96.21-.69,188.2-1,272l-.24-.24,479.32.24-479.32.25h-.25V321c.3-83.78.62-175.77,1-272v-.26h.29l479.29.06h.2V49C647.84,216.1,647.39,319.42,647.39,321Z" style="fill: rgb(38, 50, 56); transform-origin: 408.23px 184.995px;" id="elfpw7kns8o0u" class="animable"></path></g><g id="freepik--Plant--inject-17" class="animable" style="transform-origin: 633.235px 366.38px;"><path d="M595.46,387.82c-13.38-6.42-28.8-18.17-35.57-31.59a83.2,83.2,0,0,1,35.57,31.59" style="fill: rgb(253, 74, 74); transform-origin: 577.675px 372.025px;" id="el6jhv0nazajt" class="animable"></path><path d="M601.63,389.19c-11.66,9.19-29,17.88-44,18.06a83.22,83.22,0,0,1,44-18.06" style="fill: rgb(253, 74, 74); transform-origin: 579.63px 398.22px;" id="elb7aubtn39y" class="animable"></path><path d="M616.88,395.93c-9.68,11.25-25,23.09-39.75,26.14a83.19,83.19,0,0,1,39.75-26.14" style="fill: rgb(253, 74, 74); transform-origin: 597.005px 409px;" id="ellgf09bdi0o9" class="animable"></path><path d="M632.72,410c-9.19,7.25-22.86,14.1-34.71,14.24A65.54,65.54,0,0,1,632.72,410" style="fill: rgb(253, 74, 74); transform-origin: 615.365px 417.12px;" id="elmd4vjnavldl" class="animable"></path><path d="M610.2,392.87c-10.45-10.54-21.05-26.78-22.93-41.69a83.21,83.21,0,0,1,22.93,41.69" style="fill: rgb(253, 74, 74); transform-origin: 598.735px 372.025px;" id="eldejt861e65f" class="animable"></path><path d="M645.8,409.82c-15.53-8.39-33-23.67-39.77-41,16.79,8.66,30.93,23.26,39.77,41" style="fill: rgb(253, 74, 74); transform-origin: 625.915px 389.32px;" id="el4wgvbqof0p3" class="animable"></path><path d="M644.79,383.79c-15.53-8.39-33-23.67-39.78-41,16.79,8.66,30.94,23.25,39.78,41" style="fill: rgb(253, 74, 74); transform-origin: 624.9px 363.29px;" id="el640wonuk6y" class="animable"></path><path d="M642.47,358.34c-15.53-8.39-33-23.67-39.78-41,16.79,8.66,30.94,23.26,39.78,41" style="fill: rgb(253, 74, 74); transform-origin: 622.58px 337.84px;" id="el999y7s6w1jl" class="animable"></path><path d="M639.07,331.61c-14.4-10.5-29.91-28.09-34.59-46.25,15.63,10.94,27.93,27.39,34.59,46.25" style="fill: rgb(253, 74, 74); transform-origin: 621.775px 308.485px;" id="el8cp7t0yr1in" class="animable"></path><path d="M634.69,311c-9.75-15.6-18.07-38.22-16.16-57a102.57,102.57,0,0,1,16.16,57" style="fill: rgb(253, 74, 74); transform-origin: 626.48px 282.5px;" id="eln9txgfyhxui" class="animable"></path><path d="M636.9,320.81c4.11-19.46,14.1-43.47,28.48-57a120.63,120.63,0,0,1-28.48,57" style="fill: rgb(253, 74, 74); transform-origin: 651.14px 292.31px;" id="elzx1nk3bbcvf" class="animable"></path><path d="M640.1,342.82c5.88-19.91,18.26-44.05,34.35-56.88a125.42,125.42,0,0,1-34.35,56.88" style="fill: rgb(253, 74, 74); transform-origin: 657.275px 314.38px;" id="elj5n6fpbhh5s" class="animable"></path><path d="M643.63,369.62c5.88-19.9,18.26-44,34.35-56.88a125.37,125.37,0,0,1-34.35,56.88" style="fill: rgb(253, 74, 74); transform-origin: 660.805px 341.18px;" id="elbeaak19z17s" class="animable"></path><path d="M645.41,402.29c5.88-19.9,18.25-44,34.35-56.88a125.37,125.37,0,0,1-34.35,56.88" style="fill: rgb(253, 74, 74); transform-origin: 662.585px 373.85px;" id="elpaqoc7x6jse" class="animable"></path><path d="M634.3,307.06s.05.11.1.32l.22.94c.19.87.46,2.08.79,3.61.69,3.14,1.58,7.7,2.6,13.36s2.11,12.41,3.18,19.93,2,15.83,2.84,24.56,1.32,17.07,1.68,24.66.49,14.44.51,20.18,0,10.4-.12,13.61c-.05,1.57-.08,2.81-.11,3.7,0,.39,0,.71,0,1s0,.33,0,.33a1.19,1.19,0,0,1,0-.33c0-.25,0-.57,0-1v-3.7c0-3.21,0-7.86-.09-13.6s-.29-12.58-.65-20.16-.94-15.91-1.73-24.63-1.78-17-2.78-24.54-2.07-14.28-3-19.94-1.79-10.23-2.4-13.38c-.29-1.54-.51-2.76-.67-3.64-.07-.39-.12-.7-.16-.95A1.86,1.86,0,0,1,634.3,307.06Z" style="fill: rgb(38, 50, 56); transform-origin: 640.263px 370.16px;" id="elsu9u3zsh9fi" class="animable"></path><g id="elhnza8doz0nm"><g style="opacity: 0.5; transform-origin: 641.225px 331.91px;" class="animable"><path d="M645.8,409.82c-15.53-8.39-33-23.67-39.77-41,16.79,8.66,30.93,23.26,39.77,41" id="els2o7f6cmu2e" class="animable" style="transform-origin: 625.915px 389.32px;"></path><path d="M644.79,383.79c-15.53-8.39-33-23.67-39.78-41,16.79,8.66,30.94,23.25,39.78,41" id="elkdqwrtz13d" class="animable" style="transform-origin: 624.9px 363.29px;"></path><path d="M642.47,358.34c-15.53-8.39-33-23.67-39.78-41,16.79,8.66,30.94,23.26,39.78,41" id="elknmz5ggjke" class="animable" style="transform-origin: 622.58px 337.84px;"></path><path d="M639.07,331.61c-14.4-10.5-29.91-28.09-34.59-46.25,15.63,10.94,27.93,27.39,34.59,46.25" id="elhqzoj0ygk3o" class="animable" style="transform-origin: 621.775px 308.485px;"></path><path d="M634.69,311c-9.75-15.6-18.07-38.22-16.16-57a102.57,102.57,0,0,1,16.16,57" id="elf8cu8yn1jpc" class="animable" style="transform-origin: 626.48px 282.5px;"></path><path d="M636.9,320.81c4.11-19.46,14.1-43.47,28.48-57a120.63,120.63,0,0,1-28.48,57" id="elbkphrijr4p9" class="animable" style="transform-origin: 651.14px 292.31px;"></path><path d="M640.1,342.82c5.88-19.91,18.26-44.05,34.35-56.88a125.42,125.42,0,0,1-34.35,56.88" id="el3udg3der7od" class="animable" style="transform-origin: 657.275px 314.38px;"></path><path d="M643.63,369.62c5.88-19.9,18.26-44,34.35-56.88a125.37,125.37,0,0,1-34.35,56.88" id="elujnwx8fqff" class="animable" style="transform-origin: 660.805px 341.18px;"></path><path d="M645.41,402.29c5.88-19.9,18.25-44,34.35-56.88a125.37,125.37,0,0,1-34.35,56.88" id="elwj6ylfzv10s" class="animable" style="transform-origin: 662.585px 373.85px;"></path></g></g><path d="M652.62,416.54c-7.22-15.13-12.48-36.42-8.93-53a94.05,94.05,0,0,1,8.93,53" style="fill: rgb(253, 74, 74); transform-origin: 647.941px 390.04px;" id="elicpuxs2a549" class="animable"></path><path d="M664.65,396.94c-7.23-15.14-12.49-36.42-8.94-53a94,94,0,0,1,8.94,53" style="fill: rgb(253, 74, 74); transform-origin: 659.966px 370.44px;" id="elx7dif6i6ob" class="animable"></path><path d="M675.43,377c-7.23-15.14-12.48-36.42-8.94-53a94,94,0,0,1,8.94,53" style="fill: rgb(253, 74, 74); transform-origin: 670.748px 350.5px;" id="el1eomd4p8po1" class="animable"></path><path d="M686.06,355.51c-5.38-16-8.08-37.86-2.59-53.84a94.67,94.67,0,0,1,2.59,53.84" style="fill: rgb(253, 74, 74); transform-origin: 684.622px 328.59px;" id="elf4bmyokqbcl" class="animable"></path><path d="M693,337.91c.53-17.05,5.54-38.4,16.13-51a92.46,92.46,0,0,1-16.13,51" style="fill: rgb(253, 74, 74); transform-origin: 701.065px 312.41px;" id="el47b1v7isfb5" class="animable"></path><path d="M689.77,346.36c12.54-11.83,31.61-23.58,48.75-25.11a94.45,94.45,0,0,1-48.75,25.11" style="fill: rgb(253, 74, 74); transform-origin: 714.145px 333.805px;" id="elm9uh9h80pg8" class="animable"></path><path d="M681.32,364.29c14-11.13,34.93-21.58,53-21.62a98.29,98.29,0,0,1-53,21.62" style="fill: rgb(253, 74, 74); transform-origin: 707.82px 353.48px;" id="el9gcw9fd6w3" class="animable"></path><path d="M670.75,385.92c14-11.13,34.93-21.59,53-21.63a98.26,98.26,0,0,1-53,21.63" style="fill: rgb(253, 74, 74); transform-origin: 697.25px 375.105px;" id="el28kaxdqqgyb" class="animable"></path><path d="M656,410.82c14.05-11.14,34.93-21.59,53-21.63a98.34,98.34,0,0,1-53,21.63" style="fill: rgb(253, 74, 74); transform-origin: 682.5px 400.005px;" id="eli5zxq8g20yb" class="animable"></path><path d="M694.61,334.82a.78.78,0,0,1-.08.28c-.08.21-.17.48-.29.8-.29.75-.68,1.77-1.17,3.07-1,2.66-2.59,6.47-4.6,11.16-4,9.37-10,22.16-17.34,35.86-3.7,6.84-7.4,13.27-10.87,19.05s-6.75,10.89-9.58,15.13-5.16,7.65-6.83,10l-1.92,2.66-.51.68c-.12.15-.19.23-.2.22a1.84,1.84,0,0,1,.14-.26l.47-.72,1.82-2.72c1.6-2.36,3.88-5.79,6.65-10.07s6-9.42,9.45-15.19,7.13-12.21,10.83-19C678,372,684,359.27,688.06,350c2.06-4.66,3.68-8.45,4.78-11.08l1.28-3,.35-.78C694.56,334.9,694.6,334.81,694.61,334.82Z" style="fill: rgb(38, 50, 56); transform-origin: 667.915px 384.275px;" id="eltpqz5m9megq" class="animable"></path><path d="M565.16,386a.83.83,0,0,1,.25-.06l.72-.12c.63-.09,1.57-.28,2.79-.4a69.94,69.94,0,0,1,10.34-.43,74.36,74.36,0,0,1,15.23,2,73.79,73.79,0,0,1,33,17.4,74.48,74.48,0,0,1,10.26,11.43,70.63,70.63,0,0,1,5.48,8.79c.59,1.07,1,1.95,1.25,2.52l.3.67a.76.76,0,0,1,.09.23,1.48,1.48,0,0,1-.14-.21c-.09-.17-.2-.38-.35-.64-.31-.56-.71-1.42-1.33-2.48a77.59,77.59,0,0,0-5.6-8.66,76,76,0,0,0-58.19-30.69,79,79,0,0,0-10.31.27c-1.22.09-2.16.25-2.8.3l-.73.07A.69.69,0,0,1,565.16,386Z" style="fill: rgb(38, 50, 56); transform-origin: 605.015px 406.492px;" id="elhn70x3sfwvd" class="animable"></path><polygon points="673.44 478.76 628.62 478.76 620.76 420.67 681.73 420.1 673.44 478.76" style="fill: rgb(38, 50, 56); transform-origin: 651.245px 449.43px;" id="eleldz4rwqg3m" class="animable"></polygon><path d="M581.45,385.42c-15.57,6.25-37.14,10.15-53.5,5.55a94,94,0,0,1,53.5-5.55" style="fill: rgb(253, 74, 74); transform-origin: 554.7px 388.383px;" id="eld3389ej69q" class="animable"></path><rect x="617.57" y="420.1" width="67.34" height="8.81" style="fill: rgb(38, 50, 56); transform-origin: 651.24px 424.505px;" id="elltcihotuh9s" class="animable"></rect><path d="M685,429c0,.14-15.15.26-33.82.26s-33.81-.12-33.81-.26,15.13-.26,33.81-.26S685,428.88,685,429Z" style="fill: rgb(69, 90, 100); transform-origin: 651.185px 429px;" id="elj4eopt3cfsl" class="animable"></path><path d="M677.28,443.15s-.54-.58-1.67-1.44a13.15,13.15,0,0,0-5.47-2.31,17.54,17.54,0,0,0-8.75.69,42.68,42.68,0,0,0-9.74,4.92,97.43,97.43,0,0,1-9.46,5.66,23.5,23.5,0,0,1-8.65,2.51,15.12,15.12,0,0,1-6-.68,9.65,9.65,0,0,1-1.53-.64,2.72,2.72,0,0,1-.5-.3c0-.05.73.34,2.09.74a15.46,15.46,0,0,0,5.94.51,23.88,23.88,0,0,0,8.47-2.57,104.75,104.75,0,0,0,9.39-5.67,42.37,42.37,0,0,1,9.87-4.94,17.73,17.73,0,0,1,9-.6,12.87,12.87,0,0,1,5.52,2.52,6.88,6.88,0,0,1,.72.64,5.26,5.26,0,0,1,.48.51C677.18,443,677.3,443.14,677.28,443.15Z" style="fill: rgb(255, 255, 255); transform-origin: 651.396px 445.974px;" id="el0g6y9jmz31dg" class="animable"></path><path d="M675.76,449.28c0,.06-.67-.34-2-.74a12.12,12.12,0,0,0-2.39-.43,14.54,14.54,0,0,0-3.22.16,21.65,21.65,0,0,0-7.81,3.05c-2.74,1.62-5.51,3.81-8.68,5.76a26.26,26.26,0,0,1-9.76,3.72,25.9,25.9,0,0,1-8.55,0,23.89,23.89,0,0,1-5.52-1.62,14.15,14.15,0,0,1-1.42-.68,2.05,2.05,0,0,1-.47-.28s.7.29,2,.77a26,26,0,0,0,5.51,1.44,26,26,0,0,0,18-3.77c3.13-1.92,5.92-4.1,8.71-5.73a21.65,21.65,0,0,1,8-3,14.34,14.34,0,0,1,3.3-.09,11.17,11.17,0,0,1,2.44.53,8.15,8.15,0,0,1,1.43.64A2.77,2.77,0,0,1,675.76,449.28Z" style="fill: rgb(255, 255, 255); transform-origin: 650.85px 454.47px;" id="elxgrbd4jggud" class="animable"></path></g><g id="freepik--Floor--inject-17" class="animable" style="transform-origin: 375px 478.76px;"><path d="M720.57,478.76c0,.14-154.73.26-345.55.26s-345.59-.12-345.59-.26,154.7-.26,345.59-.26S720.57,478.62,720.57,478.76Z" style="fill: rgb(38, 50, 56); transform-origin: 375px 478.76px;" id="el50z9ax0cxhm" class="animable"></path></g><g id="freepik--Character--inject-17" class="animable" style="transform-origin: 116.333px 285.612px;"><path d="M91.52,446,90.1,467.43s21.35,7.09,21.48,11.08l-41.73.3.84-33.52Z" style="fill: rgb(253, 74, 74); transform-origin: 90.715px 462.05px;" id="elwsw8dmveiga" class="animable"></path><g id="el4g7tre9vbqr"><g style="opacity: 0.6; transform-origin: 77.5896px 466.827px;" class="animable"><path d="M77.26,465.24A1.7,1.7,0,0,0,76,467.15a1.64,1.64,0,0,0,1.88,1.24,1.8,1.8,0,0,0,1.3-2,1.69,1.69,0,0,0-2.1-1.07" style="fill: rgb(255, 255, 255); transform-origin: 77.5896px 466.827px;" id="elarommueaqos" class="animable"></path></g></g><g id="elu091xt8niwp"><g style="opacity: 0.6; transform-origin: 90.82px 477.125px;" class="animable"><path d="M69.85,478.81l.09-3.37,40.3,1.11a2.88,2.88,0,0,1,1.55,2.26Z" style="fill: rgb(255, 255, 255); transform-origin: 90.82px 477.125px;" id="el20yzs7rlfg1" class="animable"></path></g></g><path d="M90.78,467.24c0,.21-1,.27-2,.89s-1.59,1.47-1.77,1.38.15-1.25,1.4-2S90.83,467.06,90.78,467.24Z" style="fill: rgb(38, 50, 56); transform-origin: 88.873px 468.271px;" id="elv7mxggv4qgj" class="animable"></path><path d="M95.1,469.18c0,.2-.85.52-1.57,1.36s-.94,1.75-1.15,1.73-.29-1.17.62-2.2S95.1,469,95.1,469.18Z" style="fill: rgb(38, 50, 56); transform-origin: 93.6719px 470.684px;" id="elwqa7krl6epa" class="animable"></path><path d="M97.43,474.49c-.19,0-.44-1,.11-2.08s1.53-1.52,1.61-1.35-.53.76-1,1.67S97.63,474.48,97.43,474.49Z" style="fill: rgb(38, 50, 56); transform-origin: 98.1811px 472.757px;" id="elhdo80wwhvwo" class="animable"></path><path d="M90.56,462.32c-.09.18-1-.13-2.17-.09s-2.06.38-2.16.21.78-.88,2.14-.91S90.67,462.16,90.56,462.32Z" style="fill: rgb(38, 50, 56); transform-origin: 88.3955px 462.008px;" id="el45d08ja1l28" class="animable"></path><g id="eli1of8ec8txg"><g style="opacity: 0.3; transform-origin: 80.35px 463.22px;" class="animable"><polygon points="90.5 461.39 90.24 465.34 70.2 464.55 70.28 461.1 90.5 461.39" id="eljxwvluf37np" class="animable" style="transform-origin: 80.35px 463.22px;"></polygon></g></g><path d="M90.77,458a3.82,3.82,0,0,1-2.09-.07,9.08,9.08,0,0,1-2.16-.74,10.09,10.09,0,0,1-1.18-.67,2.49,2.49,0,0,1-.62-.51.89.89,0,0,1-.06-1.09,1.13,1.13,0,0,1,.91-.44,2.58,2.58,0,0,1,.78.14,6.93,6.93,0,0,1,1.28.48,7.62,7.62,0,0,1,1.89,1.32c.94.93,1.25,1.7,1.18,1.74s-.55-.59-1.51-1.36a8.85,8.85,0,0,0-1.83-1.11,7.23,7.23,0,0,0-1.19-.4c-.44-.13-.82-.15-.93.05s0,.1,0,.23a2.05,2.05,0,0,0,.46.37,9.06,9.06,0,0,0,1.08.67,11.56,11.56,0,0,0,2,.83A14.43,14.43,0,0,1,90.77,458Z" style="fill: rgb(38, 50, 56); transform-origin: 87.636px 456.321px;" id="elkocs62svlxr" class="animable"></path><path d="M90.49,458.27a3.39,3.39,0,0,1-.48-2,6.55,6.55,0,0,1,.35-2.27,7,7,0,0,1,.57-1.26,1.74,1.74,0,0,1,1.36-1,1,1,0,0,1,.86.61,2.7,2.7,0,0,1,.19.77,4.72,4.72,0,0,1,0,1.41,4.89,4.89,0,0,1-1,2.13c-.85,1.05-1.7,1.27-1.72,1.2s.66-.47,1.31-1.49a4.7,4.7,0,0,0,.72-1.95,4,4,0,0,0,0-1.2c-.05-.45-.21-.81-.37-.77s-.57.31-.75.66a6.89,6.89,0,0,0-.56,1.12,7.28,7.28,0,0,0-.46,2.07C90.41,457.47,90.61,458.24,90.49,458.27Z" style="fill: rgb(38, 50, 56); transform-origin: 91.697px 455.005px;" id="elx0493hpix1" class="animable"></path><path d="M135.74,447.19,132,468.36s20.46,9.37,20.15,13.35l-41.51-4.23,4.48-33.24Z" style="fill: rgb(253, 74, 74); transform-origin: 131.397px 462.975px;" id="elz866tprpv1" class="animable"></path><g id="eliw1fcmj652"><g style="opacity: 0.6; transform-origin: 119.66px 466.384px;" class="animable"><path d="M119.47,464.78a1.71,1.71,0,0,0-1.43,1.77,1.64,1.64,0,0,0,1.73,1.44,1.8,1.8,0,0,0,1.51-1.88,1.7,1.7,0,0,0-2-1.3" style="fill: rgb(255, 255, 255); transform-origin: 119.66px 466.384px;" id="elv9m2o1bys5o" class="animable"></path></g></g><g id="elppue4arw0kf"><g style="opacity: 0.6; transform-origin: 131.47px 478.08px;" class="animable"><path d="M110.64,477.48l.45-3.35L151,479.61a2.88,2.88,0,0,1,1.3,2.42Z" style="fill: rgb(255, 255, 255); transform-origin: 131.47px 478.08px;" id="elhk77pymwtn" class="animable"></path></g></g><path d="M132.7,468.25c0,.2-1.06.15-2.14.66s-1.73,1.28-1.91,1.17.29-1.22,1.62-1.82S132.77,468.07,132.7,468.25Z" style="fill: rgb(38, 50, 56); transform-origin: 130.658px 469.018px;" id="elm2ola1atdf" class="animable"></path><path d="M136.78,470.64c0,.21-.9.43-1.7,1.18s-1.13,1.64-1.33,1.6-.17-1.2.85-2.12S136.81,470.45,136.78,470.64Z" style="fill: rgb(38, 50, 56); transform-origin: 135.217px 471.972px;" id="elfyxowwb0k3" class="animable"></path><path d="M138.52,476.18c-.19,0-.33-1,.34-2.07s1.68-1.34,1.74-1.16-.6.69-1.14,1.55S138.72,476.18,138.52,476.18Z" style="fill: rgb(38, 50, 56); transform-origin: 139.483px 474.539px;" id="elm38xq3dge7" class="animable"></path><path d="M133,463.33c-.11.17-1-.24-2.15-.32s-2.09.15-2.17,0,.87-.79,2.23-.67S133.14,463.18,133,463.33Z" style="fill: rgb(38, 50, 56); transform-origin: 130.845px 462.848px;" id="elg57rawj5us" class="animable"></path><g id="elc013216fc5t"><g style="opacity: 0.3; transform-origin: 123.14px 461.815px;" class="animable"><polygon points="133.6 459.18 132.6 465.05 112.68 462 113.13 458.58 133.6 459.18" id="eln209cjqo5n" class="animable" style="transform-origin: 123.14px 461.815px;"></polygon></g></g><path d="M133.69,459a3.9,3.9,0,0,1-2.06-.3,9.48,9.48,0,0,1-2.08-1,10.49,10.49,0,0,1-1.1-.8,2.51,2.51,0,0,1-.55-.57.89.89,0,0,1,0-1.09,1.13,1.13,0,0,1,1-.33,2.46,2.46,0,0,1,.76.21,7.85,7.85,0,0,1,1.23.62,7.36,7.36,0,0,1,1.73,1.52c.84,1,1.06,1.82,1,1.85s-.47-.64-1.35-1.51a8.12,8.12,0,0,0-1.7-1.3,7.82,7.82,0,0,0-1.13-.53c-.43-.18-.8-.23-.94,0s-.06.1,0,.24a1.9,1.9,0,0,0,.4.42c.34.29.68.54,1,.77a11.94,11.94,0,0,0,1.89,1A14.52,14.52,0,0,1,133.69,459Z" style="fill: rgb(38, 50, 56); transform-origin: 130.702px 457.003px;" id="ely2io8odsjyk" class="animable"></path><path d="M133.39,459.29a3.35,3.35,0,0,1-.27-2.07,7,7,0,0,1,.6-2.23,6.6,6.6,0,0,1,.71-1.18,1.71,1.71,0,0,1,1.46-.86,1,1,0,0,1,.79.7,2.83,2.83,0,0,1,.1.78,4.52,4.52,0,0,1-.19,1.4,4.83,4.83,0,0,1-1.18,2c-1,1-1.84,1.08-1.84,1s.7-.4,1.46-1.34a4.87,4.87,0,0,0,.93-1.85,4.78,4.78,0,0,0,.13-1.21c0-.44-.12-.82-.29-.8s-.6.25-.82.58a6.63,6.63,0,0,0-.67,1,7.51,7.51,0,0,0-.69,2C133.39,458.49,133.5,459.28,133.39,459.29Z" style="fill: rgb(38, 50, 56); transform-origin: 134.921px 456.12px;" id="el5hr7cvopsy3" class="animable"></path><polygon points="136.76 459.94 152.02 364.98 117.78 362.88 111.77 459.91 136.76 459.94" style="fill: rgb(38, 50, 56); transform-origin: 131.895px 411.41px;" id="elbs37eoyb0tf" class="animable"></polygon><polygon points="104.46 264.37 63.1 269.69 63.49 279.88 67.27 461.02 93.52 461.39 106.17 307.12 104.46 264.37" style="fill: rgb(38, 50, 56); transform-origin: 84.635px 362.88px;" id="elxi9ejoyzy89" class="animable"></polygon><polygon points="125.43 260.22 152.02 364.98 119.12 370.98 104.83 321.33 92.91 266.09 125.43 260.22" style="fill: rgb(38, 50, 56); transform-origin: 122.465px 315.6px;" id="elzlajr3pjls" class="animable"></polygon><path d="M94.53,271.4s0,.16,0,.49,0,.82,0,1.44c0,1.28-.13,3.14-.23,5.53-.21,4.8-.56,11.75-1.06,20.34-1,17.17-2.64,40.88-4.36,67.06-.86,13.1-1.61,25.58-2.2,36.93-.16,2.84-.25,5.61-.46,8.3s-.43,5.3-.64,7.82c-.4,5-.77,9.73-1.11,14-.68,8.58-1.19,15.52-1.51,20.31-.16,2.4-.27,4.27-.33,5.53,0,.63,0,1.11,0,1.44a1.6,1.6,0,0,0,0,.36c0,.1.06,0,.05,0v0s-.07,0-.07,0,0-.21-.05-.37c0-.33,0-.81,0-1.44,0-1.27.1-3.13.23-5.54.27-4.8.74-11.74,1.37-20.32.32-4.29.67-9,1.06-14,.19-2.52.4-5.13.61-7.81s.28-5.46.43-8.29c.57-11.36,1.31-23.84,2.17-36.94,1.72-26.19,3.44-49.89,4.5-67.06.51-8.57.92-15.51,1.21-20.33.14-2.38.24-4.24.32-5.53,0-.62.07-1.09.09-1.43S94.53,271.4,94.53,271.4Z" style="fill: rgb(69, 90, 100); transform-origin: 88.5578px 366.197px;" id="el738ewp6wkgu" class="animable"></path><path d="M109,277c.15,0-1,14.43-2.64,32.21s-3,32.18-3.16,32.17,1-14.43,2.64-32.22S108.86,277,109,277Z" style="fill: rgb(69, 90, 100); transform-origin: 106.099px 309.19px;" id="elkmbaj8fxkz" class="animable"></path><path d="M122.33,384.12c-.13,0-4.17-14-9-31.32s-8.64-31.43-8.5-31.47,4.17,14,9,31.33S122.47,384.08,122.33,384.12Z" style="fill: rgb(69, 90, 100); transform-origin: 113.58px 352.725px;" id="eltmsy9ml4hai" class="animable"></path><path d="M82.44,270.71a2.66,2.66,0,0,1,.23,1,9,9,0,0,1,0,2.7,10.65,10.65,0,0,1-1.32,3.78,10.41,10.41,0,0,1-3.39,3.56,10.24,10.24,0,0,1-4.67,1.5,10.69,10.69,0,0,1-4-.44,9.38,9.38,0,0,1-2.43-1.15,3,3,0,0,1-.76-.63,16.59,16.59,0,0,0,3.3,1.42,10.16,10.16,0,0,0,12.9-8.1A17.19,17.19,0,0,0,82.44,270.71Z" style="fill: rgb(69, 90, 100); transform-origin: 74.4359px 276.997px;" id="elq404830eguj" class="animable"></path><path d="M128,273.61a4.22,4.22,0,0,1-1.85-.12,9.77,9.77,0,0,1-4-2,9.64,9.64,0,0,1-2.71-3.58,4.25,4.25,0,0,1-.47-1.8,17.11,17.11,0,0,1,.8,1.64,11,11,0,0,0,6.49,5.38A16.74,16.74,0,0,1,128,273.61Z" style="fill: rgb(69, 90, 100); transform-origin: 123.485px 269.886px;" id="elac05e954n4g" class="animable"></path><path d="M128.91,461s0-.17.07-.48.13-.81.23-1.41c.21-1.26.53-3.08.93-5.41.84-4.71,2.05-11.48,3.54-19.85l11.86-65.47.12-.65v.09a597.18,597.18,0,0,0-15.29-64.25c-2.41-8.09-4.5-14.6-6-19.08l-1.72-5.16c-.19-.57-.33-1-.44-1.34a3.93,3.93,0,0,1-.13-.46s.07.14.18.44l.49,1.33c.41,1.17,1,2.89,1.81,5.13,1.55,4.46,3.7,11,6.16,19a572.17,572.17,0,0,1,15.44,64.26v.1c0,.2-.08.42-.12.64-4.69,25.55-8.93,48.68-12,65.45-1.56,8.35-2.82,15.12-3.7,19.82-.44,2.32-.79,4.13-1,5.39-.12.59-.21,1.06-.28,1.39S128.91,461,128.91,461Z" style="fill: rgb(69, 90, 100); transform-origin: 134.12px 369.265px;" id="elxudiqfyr3xb" class="animable"></path><path d="M117.81,165.69a15.18,15.18,0,0,1,7.4,12.13c.2,4.49,1.25,20.46,1.25,20.46L138,187.5l11.69,19s-17,23.45-18.74,24.62-8.84,4.19-11.95,2.67S117.81,165.69,117.81,165.69Z" style="fill: rgb(253, 74, 74); transform-origin: 133.457px 199.949px;" id="elc2vy2l24ote" class="animable"></path><path d="M80.37,149.93l-3.47,9L56.09,172l10.5,66s-8.5,14.38-8.28,24.94c0,2.49,4.8,6.74,4.8,6.74s22.85,1.64,40.08-.1c16.62-1.68,22.63-7.68,22.63-7.68l3.09-6.51L126.1,247l-4.18-66.85s-1.54-11.32-4.11-14.41l-7.4-5.6-4-7.06Z" style="fill: rgb(253, 74, 74); transform-origin: 92.5px 210.155px;" id="ela8x51p92jwn" class="animable"></path><path d="M110.41,160.09a5.12,5.12,0,0,1,0,.86c0,.62,0,1.43,0,2.44,0,2.18-.06,5.19-.1,8.82v.51l-.35-.37-5.5-5.76.43-.14c-.33,2.52-.69,5.25-1.06,8.09l-.05.39-.34-.2-1.17-.7c-7-4.23-13.26-8-17.9-10.85L79,159.84l-1.45-.93a2.36,2.36,0,0,1-.49-.36,3.45,3.45,0,0,1,.54.27l1.5.85,5.48,3.19,18,10.72,1.17.7-.39.19c.38-2.84.74-5.56,1.08-8.08l.07-.52.35.38,5.44,5.81-.36.14c.11-3.63.21-6.64.28-8.82,0-1,.08-1.82.11-2.44A4.35,4.35,0,0,1,110.41,160.09Z" style="fill: rgb(38, 50, 56); transform-origin: 93.744px 166.74px;" id="ellgglms4icpj" class="animable"></path><g id="elm25m3lr3yur"><g style="opacity: 0.3; transform-origin: 90.3222px 237.951px;" class="animable"><path d="M60.34,251.85A67.88,67.88,0,0,0,72,253.72a20.75,20.75,0,0,0,11-2.3,39.69,39.69,0,0,0,6.43-5.08c5.5-4.79,11.75-8.63,18-12.45l10-6.17a7.36,7.36,0,0,0,2.29-1.88,2.21,2.21,0,0,0-2.24-3.62,7.37,7.37,0,0,0-2.46,1.07l-10.93,6.45c-13.4,7.92-27.22,16-42.59,18.43Z" id="elzgd7p1yz3bk" class="animable" style="transform-origin: 90.3222px 237.951px;"></path></g></g><path d="M74.59,219.44a1.17,1.17,0,0,1,.44-.59l2-1.48a1.2,1.2,0,0,0,.49-1.05l-.6-9.61v-.09c0-1.07.37-22.18-2-29.07-2.35-6.68-7.87-9.69-18.36-5.85a23.18,23.18,0,0,0-2.79,2.14h0a22.22,22.22,0,0,0-3.24,11l-.64,22.64s-2,20.92-2.26,23.76c-.72,7.06,1.9,18.48,7.9,19.28,2.71.36,20.23-3.37,23.7-4.35a7.33,7.33,0,0,0,2.43-2.85l2.09-21.59a1.88,1.88,0,0,0-1.82-2.06Z" style="fill: rgb(253, 74, 74); transform-origin: 65.6362px 210.276px;" id="el46n5hw3ze5n" class="animable"></path><path d="M76.42,186.6c-.07,0-.71-1.09-1.94-2.76a32.58,32.58,0,0,0-12.35-10.18c-1.88-.89-3.11-1.29-3.08-1.38a3.33,3.33,0,0,1,.89.2,20.19,20.19,0,0,1,2.34.84,29,29,0,0,1,7,4.25,28.44,28.44,0,0,1,5.51,6.06,18.76,18.76,0,0,1,1.28,2.13C76.32,186.28,76.46,186.58,76.42,186.6Z" style="fill: rgb(38, 50, 56); transform-origin: 67.7381px 179.44px;" id="elv48oxp6917j" class="animable"></path><path d="M77.51,188.88a6.46,6.46,0,0,1,.12,1.29l.16,3.52c.1,3,.21,7.08.3,11.61l.1,6.4a9.19,9.19,0,0,1-1,5.17,7.55,7.55,0,0,1-2.54,2.48,3.28,3.28,0,0,1-1.19.54s.41-.23,1.08-.7a8.23,8.23,0,0,0,2.34-2.51,9.09,9.09,0,0,0,.81-5l-.14-6.4c-.09-4.53-.14-8.64-.15-11.62v-3.52A6,6,0,0,1,77.51,188.88Z" style="fill: rgb(38, 50, 56); transform-origin: 75.8477px 204.385px;" id="elmsxa1n2zf9" class="animable"></path><path d="M55.35,250.62a2.55,2.55,0,0,1,.62-.11l1.78-.23c1.55-.2,3.78-.49,6.53-.95s6-1.09,9.59-1.93l2.74-.68a18.6,18.6,0,0,0,2.78-.84,3.2,3.2,0,0,0,1.86-2,15.34,15.34,0,0,0,.45-3.05c.42-4.23.81-8.26,1.17-11.94l.53-5.21a9.59,9.59,0,0,0,.08-2.31A1.52,1.52,0,0,0,82.26,220a7.8,7.8,0,0,0-1.93,0l-1.77.1-2.84.15-1.8.07a2.65,2.65,0,0,1-.62,0,2.65,2.65,0,0,1,.62-.1L75.7,220l2.84-.23,1.77-.14a8.07,8.07,0,0,1,2,0,1.87,1.87,0,0,1,1,.55,2.24,2.24,0,0,1,.52,1.1,9.34,9.34,0,0,1-.06,2.42c-.14,1.64-.3,3.38-.47,5.22-.35,3.67-.73,7.71-1.13,11.94a15.11,15.11,0,0,1-.48,3.17,3.77,3.77,0,0,1-.82,1.42,4,4,0,0,1-1.32.91,18,18,0,0,1-2.87.86l-2.75.67c-3.6.82-6.88,1.41-9.64,1.82s-5,.65-6.57.79c-.77.07-1.38.11-1.79.13A3,3,0,0,1,55.35,250.62Z" style="fill: rgb(38, 50, 56); transform-origin: 69.6158px 235.104px;" id="elf6o83q1mzb5" class="animable"></path><path d="M65.92,229.75a4.62,4.62,0,0,1,.3-1.83,12.5,12.5,0,0,1,2-4,11.38,11.38,0,0,1,3.35-3,4.27,4.27,0,0,1,1.73-.68,16.73,16.73,0,0,0-4.66,4C66.57,227,66.09,229.81,65.92,229.75Z" style="fill: rgb(38, 50, 56); transform-origin: 69.6082px 224.995px;" id="elepxmjndsgaf" class="animable"></path><path d="M61.82,224.73A4.81,4.81,0,0,1,63,223.15a12.1,12.1,0,0,1,4-2.64,11.94,11.94,0,0,1,4.7-.89,4.81,4.81,0,0,1,2,.3,17.93,17.93,0,0,1-2,.06,14,14,0,0,0-8.45,3.44A15.71,15.71,0,0,1,61.82,224.73Z" style="fill: rgb(38, 50, 56); transform-origin: 67.76px 222.17px;" id="el33ah3eyjm8t" class="animable"></path><path d="M110.17,252.76a6.3,6.3,0,0,1,.8,0c.52,0,1.28,0,2.27-.1a24.89,24.89,0,0,0,3.55-.45,12.28,12.28,0,0,0,4.34-1.73,7.51,7.51,0,0,0,3.1-4.55,26.85,26.85,0,0,0,.33-6.56c-.08-4.68-.18-9.82-.27-15.21-.15-10.77-.29-20.52-.39-27.64,0-3.5,0-6.35-.06-8.38l0-2.28a5.32,5.32,0,0,1,0-.79,4.44,4.44,0,0,1,.07.79q0,.85.09,2.28c0,2,.13,4.88.22,8.37.14,7.12.33,16.87.54,27.64.08,5.4.16,10.53.23,15.21a26.46,26.46,0,0,1-.39,6.67,7.89,7.89,0,0,1-3.31,4.75,12.18,12.18,0,0,1-4.49,1.71,23.09,23.09,0,0,1-3.6.37c-1,0-1.76,0-2.28,0A4.1,4.1,0,0,1,110.17,252.76Z" style="fill: rgb(38, 50, 56); transform-origin: 117.611px 218.965px;" id="elgf48v0ch7tt" class="animable"></path><path d="M121.47,255.67a10.39,10.39,0,0,1-1.63.56c-1.06.34-2.61.76-4.54,1.22a89.09,89.09,0,0,1-30.82,1.77c-2-.23-3.56-.47-4.65-.69a12.42,12.42,0,0,1-1.68-.37,10.54,10.54,0,0,1,1.71.17c1.1.15,2.69.34,4.66.53a100.17,100.17,0,0,0,30.7-1.77c1.93-.41,3.49-.77,4.56-1A12,12,0,0,1,121.47,255.67Z" style="fill: rgb(38, 50, 56); transform-origin: 99.81px 257.748px;" id="elri4umv6h6qq" class="animable"></path><path d="M108.14,250.91a4.65,4.65,0,0,1,0-.86c0-.6.06-1.42.1-2.45.1-2.17.24-5.24.41-9,.32-7.6.65-18.12.33-29.72s-1.31-22.09-2.28-29.63c-.49-3.77-.92-6.82-1.26-8.93-.16-1-.28-1.82-.37-2.42s-.1-.85-.09-.85a4.49,4.49,0,0,1,.2.83c.11.6.26,1.4.46,2.41.4,2.09.88,5.14,1.43,8.91a267.92,267.92,0,0,1,2.43,29.66c.32,11.63-.07,22.15-.48,29.76-.21,3.8-.41,6.87-.58,9-.08,1-.15,1.84-.2,2.44A7.21,7.21,0,0,1,108.14,250.91Z" style="fill: rgb(38, 50, 56); transform-origin: 107.297px 208.98px;" id="elxpa1jxsrdwc" class="animable"></path><path d="M77,199.39s-.37-.23-1.07-.52a7.61,7.61,0,0,0-3.12-.52,18.14,18.14,0,0,0-4.67.93c-.87.25-1.79.53-2.77.74a14.23,14.23,0,0,1-12.93-3.82,13.54,13.54,0,0,1-2-2.57,5.26,5.26,0,0,1-.52-1.08,23,23,0,0,0,2.82,3.38,14.89,14.89,0,0,0,9.59,3.87,19.37,19.37,0,0,0,5.73-1,17.4,17.4,0,0,1,4.79-.84,7.44,7.44,0,0,1,3.22.7A2.85,2.85,0,0,1,77,199.39Z" style="fill: rgb(255, 255, 255); transform-origin: 63.46px 196.436px;" id="elqasr2wimubn" class="animable"></path><path d="M68.79,220.45a6.38,6.38,0,0,0-1,.67A5.21,5.21,0,0,0,66.29,224c-.16.69-.26,1.46-.41,2.3a19.13,19.13,0,0,1-.72,2.62,18.37,18.37,0,0,1-12.31,11.57,18,18,0,0,1-3.36.59,5.23,5.23,0,0,1-1.25,0,35.55,35.55,0,0,0,4.5-.94,18.65,18.65,0,0,0,12-11.37,18.46,18.46,0,0,0,.74-2.55c.18-.81.3-1.59.48-2.29a5.2,5.2,0,0,1,1.72-3,2.87,2.87,0,0,1,.82-.45A.67.67,0,0,1,68.79,220.45Z" style="fill: rgb(255, 255, 255); transform-origin: 58.515px 230.781px;" id="elwsss5mixl0j" class="animable"></path><path d="M80.83,241.51s-.31-.11-.77-.45a8.62,8.62,0,0,1-1.73-1.75A12.69,12.69,0,0,1,76,231.65a23.18,23.18,0,0,1,1.72-7.86c.37-.95.7-1.71,1-2.23a2.66,2.66,0,0,1,.43-.78,27.34,27.34,0,0,1-1,3.14,26,26,0,0,0-1.54,7.73,13.2,13.2,0,0,0,2.09,7.44A15.62,15.62,0,0,0,80.83,241.51Z" style="fill: rgb(255, 255, 255); transform-origin: 78.4129px 231.145px;" id="eld7dqovynsmv" class="animable"></path><path d="M83.68,163.68a2.55,2.55,0,0,1,.07.86,11.59,11.59,0,0,1-.24,2.33,14.29,14.29,0,0,1-10,10.95,12.43,12.43,0,0,1-2.3.47,2.16,2.16,0,0,1-.86,0c0-.09,1.21-.18,3-.82a15,15,0,0,0,9.73-10.68C83.61,164.9,83.59,163.67,83.68,163.68Z" style="fill: rgb(255, 255, 255); transform-origin: 77.055px 171.007px;" id="elrfem0glxjaj" class="animable"></path><path d="M85.69,154.88a18.82,18.82,0,0,0-3.29,1.94,19.07,19.07,0,0,0-2.46,2.91,5.58,5.58,0,0,1,2.13-3.31A5.52,5.52,0,0,1,85.69,154.88Z" style="fill: rgb(255, 255, 255); transform-origin: 82.815px 157.305px;" id="elhajoklvecej" class="animable"></path><path d="M99.58,163.29a5.34,5.34,0,0,1,0,3.76,5.25,5.25,0,0,1-2.1,3.12,21.15,21.15,0,0,0,1.6-3.27A22,22,0,0,0,99.58,163.29Z" style="fill: rgb(255, 255, 255); transform-origin: 98.7009px 166.73px;" id="elmdjk468lne" class="animable"></path><path d="M109.76,165.46a25.57,25.57,0,0,1-1.59-2.89,27.61,27.61,0,0,1-1.68-2.83,6.72,6.72,0,0,1,2.13,2.57A6.88,6.88,0,0,1,109.76,165.46Z" style="fill: rgb(255, 255, 255); transform-origin: 108.125px 162.6px;" id="elpkgsj8ve7mf" class="animable"></path><path d="M107.43,190.62s-.49.07-1.32.34a8.83,8.83,0,0,0-3.1,1.91,21.76,21.76,0,0,0-3.41,4.28,20.42,20.42,0,0,1-4.45,5.17,17.29,17.29,0,0,1-11.7,3.52,16,16,0,0,1-3.68-.76,6.12,6.12,0,0,1-1.26-.55,24,24,0,0,0,5,.94,17.16,17.16,0,0,0,5.41-.61,16.77,16.77,0,0,0,5.94-3,20.51,20.51,0,0,0,4.37-5,21.15,21.15,0,0,1,3.56-4.28,8.43,8.43,0,0,1,3.3-1.82,5.23,5.23,0,0,1,1-.17C107.3,190.59,107.43,190.6,107.43,190.62Z" style="fill: rgb(255, 255, 255); transform-origin: 92.97px 198.235px;" id="elzuv2gg4e5uq" class="animable"></path><path d="M123.79,196.49a5.84,5.84,0,0,1-1.61,1.59,12.8,12.8,0,0,1-5,2.22,12.61,12.61,0,0,1-5.47-.09,5.8,5.8,0,0,1-2.1-.84c0-.08.84.23,2.18.48A14.05,14.05,0,0,0,122,197.78C123.11,197,123.72,196.42,123.79,196.49Z" style="fill: rgb(255, 255, 255); transform-origin: 116.7px 198.521px;" id="elae89mh1droh" class="animable"></path><path d="M125,175.28a24.08,24.08,0,0,0-5.93-5.14,24,24,0,0,0-7.47-2.43,7,7,0,0,1,2.35.1,16,16,0,0,1,5.37,1.88,15.82,15.82,0,0,1,4.38,3.63A6.71,6.71,0,0,1,125,175.28Z" style="fill: rgb(255, 255, 255); transform-origin: 118.3px 171.467px;" id="el69rkbv6x4j7" class="animable"></path><path d="M107.21,242a3.19,3.19,0,0,1-.5.23,9.59,9.59,0,0,0-1.41.65,16.63,16.63,0,0,0-4.42,3.58c-1.66,1.76-3.37,4.1-5.57,6.48a19,19,0,0,1-3.93,3.26c-.4.2-.78.45-1.2.62l-1.28.5a12.74,12.74,0,0,1-2.77.47c-3.83.15-7.24-1.23-10.24-2.34a34.22,34.22,0,0,0-8.14-2.37,12.12,12.12,0,0,0-5.63.42c-1.27.44-1.89.89-1.92.84a2,2,0,0,1,.44-.32,7.23,7.23,0,0,1,1.41-.71,12,12,0,0,1,5.75-.6,33,33,0,0,1,8.26,2.3c3,1.08,6.37,2.41,10,2.26a11.66,11.66,0,0,0,2.65-.45l1.22-.47c.41-.16.77-.4,1.15-.59A18.62,18.62,0,0,0,95,252.58c2.19-2.32,3.94-4.66,5.66-6.4a15.55,15.55,0,0,1,4.59-3.51,8,8,0,0,1,1.47-.57A1.73,1.73,0,0,1,107.21,242Z" style="fill: rgb(255, 255, 255); transform-origin: 83.705px 249.901px;" id="elyu0qjvegj7" class="animable"></path><path d="M124.19,246.62a20,20,0,0,1-1.68-2.4,27.94,27.94,0,0,0-4.52-5.31,13.69,13.69,0,0,0-6.12-3.12,23.48,23.48,0,0,0-2.88-.24,1.93,1.93,0,0,1,.77-.17,8.11,8.11,0,0,1,2.17.05,12.85,12.85,0,0,1,6.4,3.08,23.43,23.43,0,0,1,4.48,5.51A13,13,0,0,1,124.19,246.62Z" style="fill: rgb(255, 255, 255); transform-origin: 116.59px 240.975px;" id="el3slxmxoaopi" class="animable"></path><path d="M105.91,258.22s0,.26,0,.73a10.67,10.67,0,0,1-.45,1.92,13.92,13.92,0,0,1-1.21,2.69,15.91,15.91,0,0,1-2.19,2.86,16.22,16.22,0,0,1-2.83,2.25,13.93,13.93,0,0,1-2.66,1.26,10.18,10.18,0,0,1-1.92.48,2.32,2.32,0,0,1-.72,0c0-.1,1-.27,2.51-.88A16,16,0,0,0,99,268.26a17.05,17.05,0,0,0,2.7-2.2,17.42,17.42,0,0,0,2.16-2.75,14.75,14.75,0,0,0,1.27-2.56C105.67,259.23,105.82,258.21,105.91,258.22Z" style="fill: rgb(255, 255, 255); transform-origin: 99.92px 264.329px;" id="elekmk5zqino5" class="animable"></path><path d="M141.77,217.87c-.09,0-.54-1-1.61-2.47a15.57,15.57,0,0,0-12-6.42c-1.8-.08-2.92.12-2.94,0a2.29,2.29,0,0,1,.78-.21,12.3,12.3,0,0,1,2.17-.19,14.74,14.74,0,0,1,12.27,6.58,14.19,14.19,0,0,1,1.05,1.92A2.23,2.23,0,0,1,141.77,217.87Z" style="fill: rgb(255, 255, 255); transform-origin: 133.495px 213.225px;" id="elols1yexg0e" class="animable"></path><path d="M185,164.21c-.24-.76-1.65-1-1.65-1l.31-.42a2,2,0,0,0,.25-2,2.89,2.89,0,0,0-.15-.31,3.44,3.44,0,0,0-1.57-1.27s1.12-1.35.9-2.06a3.37,3.37,0,0,0-3.1-2.06,50.47,50.47,0,0,0-6.77,1.63,1.47,1.47,0,0,1-1.9-1.19,21.49,21.49,0,0,0-1.81-6.29c-1.11-2.11-2.55-2.26-3.43-2.12a.69.69,0,0,0-.54.9,36.11,36.11,0,0,1,1.33,4.4c.17,1.11-1.06,9-1.06,9l-1.89,4-6,6.75-19.09,16.7,10,16.23,17.51-22,1.18-1.5,4.13-4.47,2.63-2.52,8.86-3.34s1.75-2,1.61-2.69a2.12,2.12,0,0,0-.79-1.19l1.16-1.45A4.68,4.68,0,0,0,185,164.21Z" style="fill: rgb(255, 190, 157); transform-origin: 161.991px 176.091px;" id="ellgekicoglv" class="animable"></path><path d="M183,159.39a.58.58,0,0,1-.19.11l-.55.28-2,1-3,1.43c-.57.26-1.15.58-1.81.81a2.34,2.34,0,0,1-2.13-.16,1.6,1.6,0,0,1-.6-.95,2.23,2.23,0,0,1,0-1.09,3,3,0,0,1,1.2-1.6,13.66,13.66,0,0,1,1.55-.92l1.38-.72,2-1,.55-.27.2-.09a.74.74,0,0,1-.18.12l-.53.31-2,1.09-1.37.75a13.1,13.1,0,0,0-1.52.92,2.87,2.87,0,0,0-1.12,1.5,1.68,1.68,0,0,0,.49,1.82,1.71,1.71,0,0,0,.95.31,2.84,2.84,0,0,0,1-.17c.63-.22,1.22-.53,1.8-.79l3-1.39,2.06-.93.57-.24Z" style="fill: rgb(235, 153, 110); transform-origin: 177.826px 159.712px;" id="elww41favlsd" class="animable"></path><path d="M183.49,163.59l-1.22.47c-1,.39-2.45.92-4.05,1.46a11.63,11.63,0,0,1-1.16.35,2.08,2.08,0,0,1-1.08,0,1.64,1.64,0,0,1-1.13-1.33,1.73,1.73,0,0,1,.29-1.2,3.67,3.67,0,0,1,.3-.36l-.11.06a1.25,1.25,0,0,0-.25.26,1.74,1.74,0,0,0-.38,1.26,1.81,1.81,0,0,0,1.22,1.49,2.35,2.35,0,0,0,1.18,0,10.77,10.77,0,0,0,1.19-.36c1.6-.53,3-1.09,4-1.52l1.2-.53c.28-.13.43-.21.42-.23A3.63,3.63,0,0,0,183.49,163.59Z" style="fill: rgb(235, 153, 110); transform-origin: 179.301px 164.553px;" id="eln7y83jz7ok" class="animable"></path><path d="M183.76,167.3l-1.19.24c-1,.22-2.37.53-3.89.89-.38.08-.74.18-1.1.23a1.88,1.88,0,0,1-1-.12,1,1,0,0,1-.6-.62,1.22,1.22,0,0,1,0-.76,1.87,1.87,0,0,1,.75-.88,3.67,3.67,0,0,0,.37-.23,1.26,1.26,0,0,0-.41.16,1.82,1.82,0,0,0-.84.89,1.34,1.34,0,0,0-.06.87,1.18,1.18,0,0,0,.68.74,1.92,1.92,0,0,0,1.09.14,9.29,9.29,0,0,0,1.12-.23c1.52-.35,2.89-.69,3.87-.94l1.17-.31a1.37,1.37,0,0,0,.43-.14A1.94,1.94,0,0,0,183.76,167.3Z" style="fill: rgb(235, 153, 110); transform-origin: 179.947px 167.463px;" id="elg574egt6cp" class="animable"></path><path d="M182.75,170.6c-.81,0-1.93,0-3.16-.06h-.9a4.25,4.25,0,0,1-.82-.05,1.07,1.07,0,0,1-.59-.35.63.63,0,0,1-.14-.55,1.07,1.07,0,0,1,.54-.69c.19-.11.32-.13.32-.15a.57.57,0,0,0-.35.08,1.1,1.1,0,0,0-.65.73.78.78,0,0,0,.15.69,1.22,1.22,0,0,0,.68.42,3.41,3.41,0,0,0,.85.07h4.07a7.84,7.84,0,0,0,1.3-.06A7.56,7.56,0,0,0,182.75,170.6Z" style="fill: rgb(235, 153, 110); transform-origin: 180.512px 169.746px;" id="elclyma2kpj9e" class="animable"></path><path d="M173.75,166.61a11.84,11.84,0,0,1,2.17.69,4.21,4.21,0,0,0-2.14-.89,4.12,4.12,0,0,0-2.31.17A10.84,10.84,0,0,1,173.75,166.61Z" style="fill: rgb(235, 153, 110); transform-origin: 173.695px 166.809px;" id="ela2ggarc5aoa" class="animable"></path><path d="M79.63,115.12,81,150.91l23.55,15.28,1.92-12.76v-4.24s10.18-1.1,10.78-11.19c.29-4.9.07-15.06-.24-24.23a18.71,18.71,0,0,0-18.9-18.08h0A18.72,18.72,0,0,0,79.63,115.12Z" style="fill: rgb(255, 190, 157); transform-origin: 98.501px 130.939px;" id="elauo6iqzxm1" class="animable"></path><path d="M106.49,149.21a23.48,23.48,0,0,1-13-4.36s2.77,7.41,12.88,7Z" style="fill: rgb(235, 153, 110); transform-origin: 99.99px 148.358px;" id="el6e0lupwju4y" class="animable"></path><path d="M113.71,121a1.45,1.45,0,0,1-1.46,1.39,1.38,1.38,0,0,1-1.42-1.37,1.44,1.44,0,0,1,1.46-1.39A1.38,1.38,0,0,1,113.71,121Z" style="fill: rgb(38, 50, 56); transform-origin: 112.27px 121.01px;" id="el325bwcamc8c" class="animable"></path><path d="M114.61,118.93c-.19.18-1.24-.68-2.79-.75s-2.73.65-2.89.45.12-.41.64-.75a3.91,3.91,0,0,1,2.32-.6,3.85,3.85,0,0,1,2.21.83C114.56,118.5,114.7,118.85,114.61,118.93Z" style="fill: rgb(38, 50, 56); transform-origin: 111.76px 118.114px;" id="elge08ae0kf0a" class="animable"></path><path d="M99,121a1.45,1.45,0,0,1-1.46,1.39A1.38,1.38,0,0,1,96.13,121a1.44,1.44,0,0,1,1.46-1.39A1.38,1.38,0,0,1,99,121Z" style="fill: rgb(38, 50, 56); transform-origin: 97.565px 121px;" id="elew8t1tst1h" class="animable"></path><path d="M99.35,118.5c-.19.18-1.25-.68-2.8-.75s-2.72.65-2.88.45.12-.42.63-.75a3.93,3.93,0,0,1,2.32-.6,3.82,3.82,0,0,1,2.21.83C99.29,118.07,99.44,118.42,99.35,118.5Z" style="fill: rgb(38, 50, 56); transform-origin: 96.4999px 117.684px;" id="el0hl6j6pnnjlk" class="animable"></path><path d="M104.43,130.27a10.11,10.11,0,0,1,2.55-.33c.39,0,.77-.09.85-.36a2,2,0,0,0-.21-1.18c-.32-1-.67-2-1-3.07-1.42-4.38-2.43-8-2.25-8s1.47,3.44,2.89,7.81l1,3.09a2.3,2.3,0,0,1,.13,1.57,1,1,0,0,1-.67.55,2.89,2.89,0,0,1-.68.06A10,10,0,0,1,104.43,130.27Z" style="fill: rgb(38, 50, 56); transform-origin: 106.41px 123.885px;" id="elu2v7lunjfc" class="animable"></path><path d="M99.82,131.13c.25,0,.17,1.68,1.56,2.94s3.18,1.17,3.19,1.4-.42.31-1.18.29a4.14,4.14,0,0,1-2.66-1.07,3.6,3.6,0,0,1-1.2-2.46C99.49,131.52,99.7,131.11,99.82,131.13Z" style="fill: rgb(38, 50, 56); transform-origin: 102.048px 133.446px;" id="el8wi92rlpwwi" class="animable"></path><path d="M100,112.44c-.18.41-1.72.14-3.55.27s-3.32.56-3.55.17c-.1-.19.18-.57.79-.95a6.2,6.2,0,0,1,5.4-.34C99.79,111.89,100.11,112.24,100,112.44Z" style="fill: rgb(38, 50, 56); transform-origin: 96.4507px 112.084px;" id="elxy1lbgqeq5f" class="animable"></path><path d="M114.25,114.41c-.29.34-1.34-.07-2.62-.15s-2.39.12-2.62-.26c-.1-.18.09-.53.58-.84a3.79,3.79,0,0,1,4.22.33C114.25,113.88,114.38,114.25,114.25,114.41Z" style="fill: rgb(38, 50, 56); transform-origin: 111.641px 113.606px;" id="eldsgxu878pc" class="animable"></path><path d="M118.16,102.66a6.69,6.69,0,0,0,2.39-7,7.64,7.64,0,0,0-5.35-5.24,8.94,8.94,0,0,0-7.45,1.48,2.81,2.81,0,0,0-2.14-2.58,5.09,5.09,0,0,0-3.5.46,9.17,9.17,0,0,0-4.46,4.4,5.68,5.68,0,0,0-10,.72,17.6,17.6,0,0,1-.93,2.24,2.81,2.81,0,0,1-2.33,1.14h0a7.5,7.5,0,0,0-3.77,1.5,9.6,9.6,0,0,0-3.88,7.39c.08,7.28,2.35,11,2.56,18a2.34,2.34,0,0,0,.3,1.33c.67,1,2.24.51,3.16-.27,2.22-1.88,3.35-4.76,3.91-7.61s.63-5.79,1.16-8.65l0-.21a8,8,0,0,1,1.45-3.27,21.3,21.3,0,0,0,2.63,1.58,8.59,8.59,0,0,0,9.92-2.29,12.62,12.62,0,0,0,8.1,2.67c2.89-.08,5.75-.71,7.91-2.64a4,4,0,0,0,1.21-1.85C119.22,103.44,118.69,102.81,118.16,102.66Z" style="fill: rgb(38, 50, 56); transform-origin: 98.7546px 108.128px;" id="elyrolhz3yhxn" class="animable"></path><path d="M82.81,120c-.17-.08-6.84-2.38-7,4.53s6.86,5.6,6.87,5.4S82.81,120,82.81,120Z" style="fill: rgb(255, 190, 157); transform-origin: 79.3087px 124.864px;" id="elgl4h0bto3jq" class="animable"></path><path d="M80.66,127.3s-.12.08-.32.17a1.2,1.2,0,0,1-.9,0,3,3,0,0,1-1.34-2.69,4,4,0,0,1,.36-1.72,1.4,1.4,0,0,1,.92-.91.61.61,0,0,1,.71.34c.09.19,0,.33.08.34s.15-.11.1-.4A.79.79,0,0,0,80,122a.91.91,0,0,0-.66-.19,1.7,1.7,0,0,0-1.28,1,4.15,4.15,0,0,0-.44,1.92,3.12,3.12,0,0,0,1.71,3,1.3,1.3,0,0,0,1.1-.17C80.65,127.46,80.69,127.31,80.66,127.3Z" style="fill: rgb(235, 153, 110); transform-origin: 79.1407px 124.794px;" id="eljpikqbt4ujd" class="animable"></path><path d="M77.31,113.57a16.58,16.58,0,0,1,1.85-.91,14.18,14.18,0,0,0,3.87-3,13.92,13.92,0,0,0,2.59-4.15,18.76,18.76,0,0,1,.72-1.93,5.41,5.41,0,0,1-.37,2.06A12.26,12.26,0,0,1,79.32,113,5.3,5.3,0,0,1,77.31,113.57Z" style="fill: rgb(69, 90, 100); transform-origin: 81.8254px 108.575px;" id="elatzilg32fes" class="animable"></path><path d="M88.56,106A5.72,5.72,0,0,1,88,108.2a12.61,12.61,0,0,1-7.89,7.39,5.7,5.7,0,0,1-2.26.37c0-.09.85-.23,2.14-.72a13.92,13.92,0,0,0,7.67-7.18C88.28,106.79,88.47,105.94,88.56,106Z" style="fill: rgb(69, 90, 100); transform-origin: 83.205px 110.981px;" id="elvw8k8mw6nur" class="animable"></path><path d="M112.54,102.3c-.07,0-.47-.44-1.31-1a6.18,6.18,0,0,0-3.63-1,6.29,6.29,0,0,0-3.51,1.39c-.77.63-1.11,1.17-1.18,1.13s.18-.65.94-1.4a5.82,5.82,0,0,1,3.72-1.64,5.89,5.89,0,0,1,3.88,1.22C112.28,101.67,112.59,102.27,112.54,102.3Z" style="fill: rgb(69, 90, 100); transform-origin: 107.722px 101.298px;" id="el8dxduntuimp" class="animable"></path><path d="M117,91.5a8.24,8.24,0,0,0-2.71-.07,5.87,5.87,0,0,0-2.76,1.25,6,6,0,0,0-2,3.28l-.11.44-.3-.35a5.81,5.81,0,0,0-3.29-1.91,5.44,5.44,0,0,0-4.09.75,5.89,5.89,0,0,0-2.62,4l-.08.53-.35-.4a6.45,6.45,0,0,0-4.54-2.14A6.22,6.22,0,0,0,90.26,98a6.84,6.84,0,0,0-1.86,2,7.36,7.36,0,0,1-.5.85,2.93,2.93,0,0,1,.36-.94,6.54,6.54,0,0,1,5.87-3.47A6.82,6.82,0,0,1,99,98.69l-.43.13a6.29,6.29,0,0,1,2.83-4.37,5.94,5.94,0,0,1,4.48-.8,6.22,6.22,0,0,1,3.54,2.11l-.4.09a6.38,6.38,0,0,1,2.24-3.47,6.12,6.12,0,0,1,3-1.22,5.85,5.85,0,0,1,2.06.09A2,2,0,0,1,117,91.5Z" style="fill: rgb(69, 90, 100); transform-origin: 102.45px 95.979px;" id="elodo80d39umk" class="animable"></path><path d="M145.6,192.64l-6.89,3.18-3.24,3.29s7.53-.89,7.73.37.23,2.7-.27,3.1a8.52,8.52,0,0,0-1.23,1.58s1.81,2,1.12,3a11.29,11.29,0,0,0-1.1,2.09l-1.08-.09s.12,3.92-.7,4.45a3.19,3.19,0,0,1-1.77.75c-1.11.21-3.45.32-3.45.32l-1.23-.11s-6.46,8.13-8.77,7.92-6.57-.26-6.57-.26l-36.2,21,1.66-18.82.22-3.44,35.55-12.8L132,194.15l5.92-2.9,8.61-1.89A3,3,0,0,1,145.6,192.64Z" style="fill: rgb(255, 190, 157); transform-origin: 114.32px 216.295px;" id="el54g8r95ta1d" class="animable"></path><path d="M118.15,222.27a1.19,1.19,0,0,1,.33,0h1l3.72.1,1.27,0a2.1,2.1,0,0,0,1.28-.28,13,13,0,0,0,2.47-1.92,59.35,59.35,0,0,0,5.14-5.71l.07-.09h.11l1.23.1h0c.75,0,1.53-.09,2.31-.17a11.56,11.56,0,0,0,1.18-.17,2.81,2.81,0,0,0,1.09-.36l.53-.35a1.16,1.16,0,0,0,.24-.42,5.2,5.2,0,0,0,.25-1.21,20.76,20.76,0,0,0,.09-2.63v-.26l.26,0,1.08.09-.25.16a12.8,12.8,0,0,1,.61-1.3c.2-.42.6-.86.62-1.17a2.38,2.38,0,0,0-.38-1.25,7.24,7.24,0,0,0-.82-1.17l-.13-.14.1-.15a10.43,10.43,0,0,1,.93-1.31,2.94,2.94,0,0,1,.31-.3.63.63,0,0,0,.17-.23,2.06,2.06,0,0,0,.16-.69,8.22,8.22,0,0,0-.05-1.56l-.06-.39c0-.07,0-.08-.11-.15a2.09,2.09,0,0,0-.68-.21,29.93,29.93,0,0,0-6.66.18l-.72.07.51-.51.11-.12,3.12-3.17,0,0,0,0,6.9-3.18-.06,0a2.69,2.69,0,0,0,.89-3l.29.15L138,191.48l.05,0-5.93,2.87.06,0-9.3,10.23-2.57,2.78-.68.72c-.16.16-.24.24-.25.23s.06-.1.2-.27l.64-.76c.6-.68,1.44-1.64,2.49-2.86,2.21-2.49,5.34-6,9.16-10.35l0,0,0,0,5.91-2.92h.05l8.61-1.91.22-.05.06.2a3.29,3.29,0,0,1,.06,1.94,3.11,3.11,0,0,1-1.09,1.62l0,0h0l-6.89,3.2.07-.06c-1,1.05-2.06,2.1-3.11,3.17l-.12.12-.22-.44q1.73-.19,3.42-.27a17.5,17.5,0,0,1,3.39.1,2.41,2.41,0,0,1,.87.29.76.76,0,0,1,.34.5l.06.41a8.46,8.46,0,0,1,0,1.67,2.52,2.52,0,0,1-.21.86,1.07,1.07,0,0,1-.3.39,1.55,1.55,0,0,0-.25.26,8.38,8.38,0,0,0-.89,1.23l0-.3a7.77,7.77,0,0,1,.89,1.26,2.83,2.83,0,0,1,.43,1.54,1.67,1.67,0,0,1-.32.75q-.19.3-.36.6c-.22.41-.42.83-.59,1.24l-.07.17-.17,0-1.08-.1.26-.24a21.76,21.76,0,0,1-.11,2.69,6.22,6.22,0,0,1-.28,1.32,1.37,1.37,0,0,1-.43.64l-.52.34a3.14,3.14,0,0,1-1.25.42c-.41.08-.82.13-1.22.17-.8.07-1.58.12-2.34.16h0l-1.23-.12.18-.07a57.84,57.84,0,0,1-5.24,5.69,12.65,12.65,0,0,1-2.56,1.93,3.06,3.06,0,0,1-.71.27,2.51,2.51,0,0,1-.72,0l-1.27-.07-3.7-.2-1-.07Z" style="fill: rgb(235, 153, 110); transform-origin: 132.524px 205.978px;" id="el1p86svcgefxj" class="animable"></path><path d="M141.75,204a11,11,0,0,1-1.13-.46,6.82,6.82,0,0,0-2.84-.27,16.06,16.06,0,0,0-2.86.66c-.73.21-1.19.33-1.22.26s.39-.3,1.1-.61a10.5,10.5,0,0,1,2.92-.83,5.81,5.81,0,0,1,3,.45C141.48,203.55,141.79,204,141.75,204Z" style="fill: rgb(235, 153, 110); transform-origin: 137.726px 203.461px;" id="elclqdq13mkbn" class="animable"></path><path d="M140.67,209.39a1.23,1.23,0,0,0-.52-.88,5.39,5.39,0,0,0-2.65-.26,17.07,17.07,0,0,0-3.8,1.06,5.69,5.69,0,0,1,3.75-1.58,7.88,7.88,0,0,1,1.62,0,2.52,2.52,0,0,1,1.29.45,1.08,1.08,0,0,1,.44.85C140.79,209.3,140.7,209.4,140.67,209.39Z" style="fill: rgb(235, 153, 110); transform-origin: 137.25px 208.539px;" id="elx8ieipfdvk" class="animable"></path><path d="M137.21,212.21c0,.06-.31.2-.86.26a9.54,9.54,0,0,0-2,.26,1.42,1.42,0,0,0-1.08,1.28c0,.47.27.69.22.75s-.45-.08-.58-.71a1.4,1.4,0,0,1,.23-1.05,2.1,2.1,0,0,1,1-.76,5.76,5.76,0,0,1,2.15-.14C136.86,212.14,137.19,212.13,137.21,212.21Z" style="fill: rgb(235, 153, 110); transform-origin: 135.049px 213.415px;" id="ele3cdk9bivnl" class="animable"></path><g id="elkzmsjwyrfy"><g style="opacity: 0.3; transform-origin: 98.2338px 253.726px;" class="animable"><path d="M115,252.41c-12.87,2.07-26.26,1.44-39.1-.79-1.17-.21-2.67-.28-3.22.77a1.91,1.91,0,0,0,.52,2.17,5,5,0,0,0,2.14,1c5.57,1.52,11.44,1.42,17.21,1.16a104.74,104.74,0,0,0,31.38-6.14Z" id="el556t9hgnbkj" class="animable" style="transform-origin: 98.2338px 253.726px;"></path></g></g><g id="elbmwybgbvthb"><g style="opacity: 0.3; transform-origin: 65.6577px 222.135px;" class="animable"><path d="M73.28,219.63a15.16,15.16,0,0,0-14.78,3.18c-.49.46-1,1.09-.8,1.73a1.28,1.28,0,0,0,1.12.82,3.22,3.22,0,0,0,1.43-.27,50.4,50.4,0,0,0,6.41-3.49,11.49,11.49,0,0,1,7-1.79" id="elyfpfm6t36g" class="animable" style="transform-origin: 65.6577px 222.135px;"></path></g></g></g><defs>     <filter id="active" height="200%">         <feMorphology in="SourceAlpha" result="DILATED" operator="dilate" radius="2"></feMorphology>                <feFlood flood-color="#32DFEC" flood-opacity="1" result="PINK"></feFlood>        <feComposite in="PINK" in2="DILATED" operator="in" result="OUTLINE"></feComposite>        <feMerge>            <feMergeNode in="OUTLINE"></feMergeNode>            <feMergeNode in="SourceGraphic"></feMergeNode>        </feMerge>    </filter>    <filter id="hover" height="200%">        <feMorphology in="SourceAlpha" result="DILATED" operator="dilate" radius="2"></feMorphology>                <feFlood flood-color="#ff0000" flood-opacity="0.5" result="PINK"></feFlood>        <feComposite in="PINK" in2="DILATED" operator="in" result="OUTLINE"></feComposite>        <feMerge>            <feMergeNode in="OUTLINE"></feMergeNode>            <feMergeNode in="SourceGraphic"></feMergeNode>        </feMerge>            <feColorMatrix type="matrix" values="0   0   0   0   0                0   1   0   0   0                0   0   0   0   0                0   0   0   1   0 "></feColorMatrix>    </filter></defs></svg>